<svg width="76" height="76" viewBox="0 0 76 76" fill="none" xmlns="http://www.w3.org/2000/svg">
<g clip-path="url(#clip0_149_1786)">
<path d="M66.5 0H9.50003C4.25331 0 0 4.25331 0 9.50003V66.5C0 71.7467 4.25331 76 9.50003 76H66.5C71.7467 76 76 71.7467 76 66.5V9.50003C76 4.25331 71.7467 0 66.5 0Z" fill="#FF9800"/>
<path d="M19.9201 45.6211H42.2983C43.2443 45.6211 44.0112 46.388 44.0112 47.334V64.4309C44.0112 65.3769 43.2443 66.1438 42.2983 66.1438H11.2129C10.2669 66.1438 9.5 65.3769 9.5 64.4309V43.4482C9.5 42.5022 10.2669 41.7353 11.2129 41.7353H18.2071C19.1531 41.7353 19.9201 42.5022 19.9201 43.4482V45.621L19.9201 45.6211Z" fill="#FFFFFE"/>
<path fill-rule="evenodd" clip-rule="evenodd" d="M39.9629 27.5582H66.5003V33.9571H39.9629V27.5582ZM43.1169 29.8908C43.5957 29.8908 43.9838 30.2789 43.9838 30.7576C43.9838 31.2364 43.5957 31.6245 43.1169 31.6245C42.6382 31.6245 42.2501 31.2364 42.2501 30.7576C42.2501 30.2789 42.6382 29.8908 43.1169 29.8908ZM46.7316 29.8908C47.2104 29.8908 47.5985 30.2789 47.5985 30.7576C47.5985 31.2364 47.2104 31.6245 46.7316 31.6245C46.2529 31.6245 45.8647 31.2364 45.8647 30.7576C45.8647 30.2789 46.2529 29.8908 46.7316 29.8908Z" fill="#FFFFFE"/>
<path d="M44.0117 54.527H54.2401V33.2097H56.6922V55.753V56.9791H55.4662H44.0117V54.527Z" fill="#FFFFFE"/>
<path fill-rule="evenodd" clip-rule="evenodd" d="M39.9629 18.7072H66.5003V25.1061H39.9629V18.7072ZM43.1169 21.0397C43.5957 21.0397 43.9838 21.4279 43.9838 21.9066C43.9838 22.3853 43.5957 22.7735 43.1169 22.7735C42.6382 22.7735 42.2501 22.3853 42.2501 21.9066C42.2501 21.4279 42.6382 21.0397 43.1169 21.0397ZM46.7316 21.0397C47.2104 21.0397 47.5985 21.4279 47.5985 21.9066C47.5985 22.3853 47.2104 22.7735 46.7316 22.7735C46.2529 22.7735 45.8647 22.3853 45.8647 21.9066C45.8647 21.4279 46.2529 21.0397 46.7316 21.0397Z" fill="#FFFFFE"/>
<path fill-rule="evenodd" clip-rule="evenodd" d="M39.9629 9.85608H66.5003V16.255H39.9629V9.85608ZM43.1169 12.1887C43.5957 12.1887 43.9838 12.5768 43.9838 13.0556C43.9838 13.5343 43.5957 13.9225 43.1169 13.9225C42.6382 13.9225 42.2501 13.5343 42.2501 13.0556C42.2501 12.5768 42.6382 12.1887 43.1169 12.1887ZM46.7316 12.1887C47.2104 12.1887 47.5985 12.5768 47.5985 13.0556C47.5985 13.5343 47.2104 13.9225 46.7316 13.9225C46.2529 13.9225 45.8647 13.5343 45.8647 13.0556C45.8647 12.5768 46.2529 12.1887 46.7316 12.1887Z" fill="#FFFFFE"/>
</g>
<defs>
<clipPath id="clip0_149_1786">
<rect width="76" height="76" fill="white"/>
</clipPath>
</defs>
</svg>
