<svg width="76" height="76" viewBox="0 0 76 76" fill="none" xmlns="http://www.w3.org/2000/svg">
<g clip-path="url(#clip0_149_1731)">
<path d="M66.5 0H9.50003C4.25331 0 0 4.25331 0 9.50003V66.5C0 71.7467 4.25331 76 9.50003 76H66.5C71.7467 76 76 71.7467 76 66.5V9.50003C76 4.25331 71.7467 0 66.5 0Z" fill="#FF5722"/>
<path fill-rule="evenodd" clip-rule="evenodd" d="M13.2109 20.3359H62.789C63.6055 20.3359 64.2734 21.0038 64.2734 21.8202V50.9141C64.2734 51.7305 63.6054 52.3984 62.789 52.3984H13.2109C12.3945 52.3984 11.7266 51.7305 11.7266 50.9141V21.8202C11.7266 21.0038 12.3945 20.3359 13.2109 20.3359ZM38.8907 28.0403V34.827L44.766 31.4348C44.5999 30.4281 45.0584 29.3787 45.9943 28.8384C47.201 28.1417 48.744 28.5552 49.4407 29.7619C50.1374 30.9686 49.7239 32.5116 48.5172 33.2083C47.5813 33.7486 46.4433 33.621 45.6546 32.9737L39.777 36.3671L45.6548 39.7607C45.7598 39.6747 45.8729 39.596 45.9943 39.5259C47.201 38.8292 48.744 39.2427 49.4407 40.4494C50.1374 41.6561 49.7239 43.1991 48.5172 43.8958C47.3105 44.5925 45.7675 44.179 45.0708 42.9723C44.767 42.4461 44.6743 41.8558 44.7665 41.2997L38.8907 37.9073V44.6941C39.4175 44.8926 39.8816 45.2676 40.185 45.7932C40.8817 46.9999 40.4682 48.5429 39.2615 49.2396C38.0548 49.9363 36.5118 49.5229 35.8151 48.3161C35.1184 47.1094 35.5319 45.5664 36.7386 44.8697C36.8592 44.8001 36.9833 44.7417 37.1094 44.6939V37.9073L31.2341 41.2994C31.4003 42.3062 30.9417 43.3555 30.0058 43.8959C28.7992 44.5925 27.2561 44.1791 26.5594 42.9724C25.8628 41.7657 26.2762 40.2227 27.4829 39.526C28.4188 38.9857 29.5568 39.1132 30.3455 39.7605L36.223 36.3671L30.3453 32.9736C30.2403 33.0596 30.1272 33.1383 30.0058 33.2083C28.7992 33.905 27.2561 33.4915 26.5594 32.2848C25.8628 31.0781 26.2762 29.5351 27.4829 28.8384C28.6896 28.1417 30.2327 28.5552 30.9293 29.7619C31.2332 30.2882 31.3258 30.8785 31.2336 31.4346L37.1094 34.827V28.0401C36.5826 27.8417 36.1185 27.4666 35.8151 26.941C35.1184 25.7343 35.5318 24.1913 36.7386 23.4946C37.9452 22.7979 39.4883 23.2114 40.185 24.4181C40.8816 25.6248 40.4682 27.1678 39.2615 27.8645C39.1408 27.9341 39.0168 27.9925 38.8907 28.0403V28.0403Z" fill="#FFFFFE"/>
<path d="M9.5 55.664H66.5001" stroke="#FFFFFE" stroke-width="4" stroke-linecap="round" stroke-linejoin="round"/>
</g>
<defs>
<clipPath id="clip0_149_1731">
<rect width="76" height="76" fill="white"/>
</clipPath>
</defs>
</svg>
