<svg width="76" height="76" viewBox="0 0 76 76" fill="none" xmlns="http://www.w3.org/2000/svg">
<g clip-path="url(#clip0_149_1853)">
<path d="M66.5 0H9.50003C4.25331 0 0 4.25331 0 9.50003V66.5C0 71.7467 4.25331 76 9.50003 76H66.5C71.7467 76 76 71.7467 76 66.5V9.50003C76 4.25331 71.7467 0 66.5 0Z" fill="#66BB6A"/>
<path fill-rule="evenodd" clip-rule="evenodd" d="M48.4351 17.9313V21.0513C47.8236 21.4216 46.1309 21.8702 43.7116 22.3294C40.114 23.0124 35.1179 23.4348 29.5765 23.4348C24.035 23.4348 19.039 23.0124 15.4413 22.3294C13.022 21.8702 11.3293 21.4216 10.7178 21.0513V17.9313C10.7178 12.8926 48.4351 12.8926 48.4351 17.9313H48.4351ZM48.4351 23.4297V30.2605C47.8236 30.6308 46.1309 31.0794 43.7116 31.5386C40.114 32.2216 35.1179 32.644 29.5765 32.644C24.035 32.644 19.039 32.2216 15.4413 31.5386C13.022 31.0794 11.3293 30.6308 10.7178 30.2605V23.4297C11.8415 23.9192 13.2922 24.3329 15.0053 24.658C18.7541 25.3697 23.9075 25.8099 29.5764 25.8099C35.2453 25.8099 40.3986 25.3697 44.1475 24.658C45.8606 24.3329 47.3113 23.9192 48.435 23.4297H48.4351ZM48.4351 32.639V39.4697C47.8236 39.8401 46.1309 40.2886 43.7116 40.7479C40.114 41.4308 35.1179 41.8533 29.5765 41.8533C24.035 41.8533 19.039 41.4308 15.4413 40.7479C13.022 40.2886 11.3293 39.8401 10.7178 39.4697V32.639C11.8415 33.1284 13.2922 33.5421 15.0053 33.8672C18.7541 34.5789 23.9075 35.0191 29.5764 35.0191C35.2453 35.0191 40.3986 34.5789 44.1475 33.8672C45.8606 33.5421 47.3113 33.1284 48.435 32.639H48.4351ZM48.4351 41.8482V48.6789C47.8236 49.0493 46.1309 49.4978 43.7116 49.9571C40.114 50.64 35.1179 51.0625 29.5765 51.0625C24.035 51.0625 19.039 50.64 15.4413 49.9571C13.022 49.4978 11.3293 49.0493 10.7178 48.6789V41.8482C11.8415 42.3376 13.2922 42.7513 15.0053 43.0765C18.7541 43.7881 23.9075 44.2283 29.5764 44.2283C35.2453 44.2283 40.3986 43.7881 44.1475 43.0765C45.8606 42.7513 47.3113 42.3376 48.435 41.8482H48.4351ZM48.4351 51.0574V58.0688C48.4351 60.1969 39.9919 61.9221 29.5765 61.9221C19.1611 61.9221 10.7178 60.3158 10.7178 58.1877V51.0574C11.8415 51.5468 13.2922 51.9605 15.0053 52.2857C18.7542 52.9974 23.9075 53.4375 29.5764 53.4375C35.2454 53.4375 40.3987 52.9974 44.1475 52.2857C45.8606 51.9605 47.3113 51.5468 48.435 51.0574H48.4351Z" fill="#FFFFFE"/>
<path fill-rule="evenodd" clip-rule="evenodd" d="M66.2175 24.2484V26.4599C65.784 26.7224 64.5842 27.0403 62.8693 27.3658C60.3193 27.8499 56.778 28.1494 52.8501 28.1494C51.7389 28.1494 50.6587 28.1254 49.6231 28.0801V21.6408C57.1873 21.3037 66.2175 22.1726 66.2175 24.2484L66.2175 24.2484ZM66.2175 28.1458V32.9875C65.784 33.2501 64.5842 33.568 62.8693 33.8935C60.3193 34.3776 56.778 34.677 52.8501 34.677C51.7389 34.677 50.6587 34.6531 49.6231 34.6077V29.7642C50.6622 29.8091 51.7422 29.8329 52.8501 29.8329C56.8684 29.8329 60.5211 29.5209 63.1784 29.0164C64.3927 28.7859 65.421 28.4927 66.2175 28.1458V28.1458ZM66.2175 34.6734V39.5152C65.784 39.7777 64.5842 40.0957 62.8693 40.4212C60.3193 40.9053 56.778 41.2047 52.8501 41.2047C51.7389 41.2047 50.6587 41.1807 49.6231 41.1354V36.2918C50.6622 36.3367 51.7422 36.3605 52.8501 36.3605C56.8684 36.3605 60.5211 36.0485 63.1784 35.544C64.3927 35.3135 65.421 35.0204 66.2175 34.6734V34.6734ZM66.2175 41.2011V46.0429C65.784 46.3054 64.5842 46.6233 62.8693 46.9488C60.3193 47.4329 56.778 47.7323 52.8501 47.7323C51.7389 47.7323 50.6587 47.7084 49.6231 47.663V42.8195C50.6622 42.8644 51.7422 42.8882 52.8501 42.8882C56.8684 42.8882 60.5211 42.5762 63.1784 42.0717C64.3927 41.8412 65.421 41.548 66.2175 41.2011V41.2011ZM66.2175 47.7287V52.6985C66.2175 54.207 60.2327 55.4298 52.8501 55.4298C51.7373 55.4298 50.6566 55.4037 49.623 55.3546V49.3471C50.6622 49.392 51.7422 49.4158 52.8501 49.4158C56.8683 49.4158 60.5211 49.1038 63.1784 48.5994C64.3926 48.3689 65.4209 48.0757 66.2174 47.7287H66.2175Z" fill="#FFFFFE"/>
</g>
<defs>
<clipPath id="clip0_149_1853">
<rect width="76" height="76" fill="white"/>
</clipPath>
</defs>
</svg>
