<svg width="76" height="76" viewBox="0 0 76 76" fill="none" xmlns="http://www.w3.org/2000/svg">
<g clip-path="url(#clip0_149_1841)">
<path d="M66.5 0H9.50003C4.25331 0 0 4.25331 0 9.50003V66.5C0 71.7467 4.25331 76 9.50003 76H66.5C71.7467 76 76 71.7467 76 66.5V9.50003C76 4.25331 71.7467 0 66.5 0Z" fill="#7E57C2"/>
<path fill-rule="evenodd" clip-rule="evenodd" d="M17.5157 9.49998H45.3701V21.4268C45.3701 22.7381 46.434 23.8018 47.7451 23.8018H59.672V65.3126C59.672 65.9684 59.1403 66.5001 58.4844 66.5001H17.5157C16.8598 66.5001 16.3281 65.9684 16.3281 65.3126V10.6875C16.3281 10.0316 16.8598 9.49994 17.5157 9.49994L17.5157 9.49998ZM30.567 39.8895H45.4331V41.6707H30.567V39.8895ZM34.294 28.742C33.5438 29.1655 32.8977 29.794 32.4122 30.5623C31.8105 31.5144 31.4544 32.6821 31.4544 33.9369V34.0313C31.4544 34.4431 31.6048 34.8233 31.8469 35.1041C32.1103 35.4096 32.4806 35.5992 32.8943 35.5992H43.1058C43.5196 35.5992 43.8899 35.4096 44.1533 35.1041C44.3954 34.8233 44.5458 34.4431 44.5458 34.0313V33.9369C44.5458 32.6909 44.1954 31.5317 43.6029 30.5847C43.1207 29.814 42.4775 29.1824 41.7298 28.7549C41.5306 29.1611 41.2655 29.5355 40.9251 29.864C38.8909 31.8268 35.5644 31.2004 34.294 28.742L34.294 28.742ZM38.0001 30.3914H37.9987L37.9964 30.3914C37.2127 30.3904 36.272 30.0703 35.5535 29.377C34.9796 28.8233 34.5457 28.0368 34.4446 26.9933C34.4371 26.916 34.4312 26.782 34.4269 26.6372C34.421 26.4439 34.4175 26.2091 34.4166 26.0962C34.4062 24.75 34.8408 23.8716 35.5274 23.3138C36.1957 22.7709 37.071 22.5713 37.9876 22.5532L37.9875 22.5509C38.0158 22.5504 38.0436 22.5516 38.071 22.5546C38.9663 22.58 39.8187 22.7824 40.4728 23.3138C41.1593 23.8717 41.594 24.75 41.5835 26.0962C41.5827 26.2091 41.5792 26.4439 41.5733 26.6372C41.5689 26.782 41.5631 26.916 41.5556 26.9933C41.4517 28.0666 41.0517 28.8538 40.4813 29.404C39.8153 30.0468 38.9345 30.3454 38.0306 30.3889L38.0307 30.3907C38.0205 30.3912 38.0103 30.3914 38.0001 30.3914V30.3914L38.0001 30.3914ZM22.5789 52.1141H53.4212V53.8954H22.5789V52.1141ZM22.5789 46.0018H53.4212V47.783H22.5789V46.0018Z" fill="#FFFFFE"/>
<path d="M47.7451 22.6143C47.0893 22.6143 46.5576 22.0826 46.5576 21.4268V10.6973C46.5576 10.0358 47.0811 9.5 47.7451 9.5C48.0768 9.5 48.3766 9.636 48.5921 9.85524L59.324 20.5872L59.3241 20.5871C59.7878 21.0508 59.7878 21.8028 59.3241 22.2665C59.0923 22.4984 58.7883 22.6143 58.4844 22.6143L47.7451 22.6143L47.7451 22.6143Z" fill="#FFFFFE"/>
</g>
<defs>
<clipPath id="clip0_149_1841">
<rect width="76" height="76" fill="white"/>
</clipPath>
</defs>
</svg>
