<svg width="76" height="76" viewBox="0 0 76 76" fill="none" xmlns="http://www.w3.org/2000/svg">
<g clip-path="url(#clip0_149_1847)">
<path d="M66.5 0H9.50003C4.25331 0 0 4.25331 0 9.50003V66.5C0 71.7467 4.25331 76 9.50003 76H66.5C71.7467 76 76 71.7467 76 66.5V9.50003C76 4.25331 71.7467 0 66.5 0Z" fill="#2483FF"/>
<path fill-rule="evenodd" clip-rule="evenodd" d="M14.5562 21.0699H61.4448C62.217 21.0699 62.8487 21.7016 62.8487 22.4737V49.9893C62.8487 50.7613 62.2169 51.3931 61.4448 51.3931H14.5562C13.7841 51.3931 13.1523 50.7614 13.1523 49.9893V22.4737C13.1523 21.7016 13.784 21.0699 14.5562 21.0699ZM19.652 24.8236C20.0342 24.8236 20.332 24.9601 20.5464 25.2323C20.8021 25.554 20.9304 26.0882 20.9304 26.8351C20.9304 27.5792 20.8012 28.1144 20.5436 28.4406C20.3311 28.7091 20.0342 28.843 19.652 28.843C19.2698 28.843 18.961 28.6963 18.7264 28.4012C18.4918 28.1071 18.3745 27.582 18.3745 26.8268C18.3745 26.0855 18.5038 25.5521 18.7613 25.2268C18.9739 24.9583 19.2708 24.8236 19.652 24.8236V24.8236ZM19.652 43.6201C20.0342 43.6201 20.332 43.7566 20.5464 44.0288C20.8021 44.3504 20.9304 44.8847 20.9304 45.6315C20.9304 46.3757 20.8012 46.9109 20.5436 47.2371C20.3311 47.5056 20.0342 47.6394 19.652 47.6394C19.2698 47.6394 18.961 47.4928 18.7264 47.1977C18.4918 46.9035 18.3745 46.3784 18.3745 45.6233C18.3745 44.8819 18.5038 44.3486 18.7613 44.0233C18.9739 43.7548 19.2708 43.6201 19.652 43.6201V43.6201ZM19.652 44.2459C19.5612 44.2459 19.4797 44.2753 19.4082 44.333C19.3368 44.3916 19.2809 44.4962 19.2415 44.6464C19.1901 44.8416 19.1636 45.1697 19.1636 45.6315C19.1636 46.0934 19.1874 46.4104 19.2332 46.5828C19.28 46.756 19.3386 46.8705 19.4092 46.9283C19.4806 46.985 19.5612 47.0144 19.652 47.0144C19.7436 47.0144 19.8252 46.985 19.8967 46.9264C19.9681 46.8687 20.024 46.7642 20.0635 46.6139C20.1147 46.4205 20.1414 46.0934 20.1414 45.6315C20.1414 45.1697 20.1175 44.8526 20.0717 44.6794C20.025 44.5071 19.9664 44.3916 19.8958 44.333C19.8243 44.2753 19.7436 44.2459 19.652 44.2459L19.652 44.2459ZM23.3653 47.5725H22.6111V44.7289C22.3352 44.9873 22.0108 45.1779 21.6369 45.3007V44.6162C21.833 44.552 22.0475 44.4301 22.2784 44.2505C22.5093 44.07 22.6678 43.8602 22.7531 43.6201H23.3652V47.5725L23.3653 47.5725ZM25.768 43.62C26.1502 43.62 26.448 43.7566 26.6625 44.0288C26.9181 44.3504 27.0464 44.8847 27.0464 45.6315C27.0464 46.3756 26.9171 46.9108 26.6596 47.2371C26.4471 47.5055 26.1502 47.6394 25.768 47.6394C25.3858 47.6394 25.077 47.4928 24.8424 47.1977C24.6078 46.9035 24.4905 46.3784 24.4905 45.6233C24.4905 44.8819 24.6198 44.3486 24.8773 44.0233C25.0899 43.7548 25.3868 43.6201 25.768 43.6201V43.62ZM25.768 44.2459C25.6772 44.2459 25.5958 44.2753 25.5242 44.333C25.4527 44.3916 25.3969 44.4962 25.3575 44.6464C25.3061 44.8416 25.2796 45.1697 25.2796 45.6315C25.2796 46.0934 25.3034 46.4104 25.3492 46.5828C25.396 46.7559 25.4546 46.8705 25.5252 46.9283C25.5966 46.985 25.6772 47.0144 25.768 47.0144C25.8597 47.0144 25.9412 46.985 26.0127 46.9264C26.0842 46.8687 26.14 46.7642 26.1795 46.6139C26.2308 46.4205 26.2574 46.0934 26.2574 45.6315C26.2574 45.1697 26.2336 44.8526 26.1877 44.6794C26.141 44.5071 26.0824 44.3916 26.0118 44.333C25.9403 44.2753 25.8597 44.2459 25.768 44.2459L25.768 44.2459ZM29.4812 47.5725H28.7271V44.7289C28.4512 44.9873 28.1268 45.1779 27.7529 45.3007V44.6162C27.949 44.552 28.1635 44.4301 28.3943 44.2505C28.6253 44.07 28.7838 43.8601 28.8691 43.62H29.4812V47.5725V47.5725ZM31.884 43.62C32.2662 43.62 32.564 43.7566 32.7784 44.0288C33.0341 44.3504 33.1624 44.8847 33.1624 45.6315C33.1624 46.3756 33.0332 46.9108 32.7757 47.2371C32.5631 47.5055 32.2662 47.6394 31.884 47.6394C31.5019 47.6394 31.1931 47.4928 30.9585 47.1977C30.7239 46.9035 30.6065 46.3784 30.6065 45.6233C30.6065 44.8819 30.7357 44.3486 30.9933 44.0233C31.2059 43.7547 31.5028 43.6201 31.884 43.6201V43.62ZM31.884 44.2459C31.7933 44.2459 31.7118 44.2753 31.6402 44.333C31.5687 44.3916 31.5129 44.4962 31.4735 44.6464C31.4222 44.8416 31.3956 45.1696 31.3956 45.6315C31.3956 46.0934 31.4194 46.4104 31.4652 46.5828C31.512 46.7559 31.5707 46.8705 31.6411 46.9283C31.7127 46.985 31.7933 47.0144 31.884 47.0144C31.9757 47.0144 32.0573 46.985 32.1287 46.9264C32.2002 46.8687 32.2561 46.7642 32.2955 46.6139C32.3468 46.4205 32.3734 46.0934 32.3734 45.6315C32.3734 45.1696 32.3496 44.8526 32.3037 44.6794C32.257 44.5071 32.1984 44.3916 32.1277 44.333C32.0563 44.2753 31.9757 44.2459 31.884 44.2459V44.2459ZM35.5973 47.5725H34.8431V44.7289C34.5672 44.9873 34.2428 45.1779 33.8689 45.3007V44.6162C34.065 44.552 34.2795 44.4301 34.5103 44.2505C34.7413 44.07 34.8999 43.8601 34.9851 43.62H35.5973V47.5725V47.5725ZM38 43.62C38.3822 43.62 38.68 43.7566 38.8944 44.0287C39.1501 44.3504 39.2784 44.8847 39.2784 45.6315C39.2784 46.3756 39.1492 46.9108 38.8917 47.2371C38.6791 47.5055 38.3822 47.6394 38 47.6394C37.6178 47.6394 37.3091 47.4928 37.0745 47.1977C36.8399 46.9035 36.7225 46.3784 36.7225 45.6233C36.7225 44.8819 36.8517 44.3485 37.1093 44.0232C37.3219 43.7547 37.6188 43.6201 38 43.6201L38 43.62ZM38 44.2459C37.9093 44.2459 37.8278 44.2752 37.7563 44.333C37.6848 44.3916 37.6289 44.4962 37.5895 44.6464C37.5382 44.8416 37.5116 45.1696 37.5116 45.6315C37.5116 46.0934 37.5354 46.4104 37.5813 46.5828C37.628 46.7559 37.6867 46.8705 37.7571 46.9283C37.8287 46.985 37.9093 47.0144 38 47.0144C38.0917 47.0144 38.1733 46.985 38.2447 46.9264C38.3162 46.8687 38.3721 46.7642 38.4115 46.6139C38.4628 46.4205 38.4894 46.0934 38.4894 45.6315C38.4894 45.1696 38.4656 44.8526 38.4197 44.6794C38.373 44.5071 38.3144 44.3916 38.2438 44.333C38.1723 44.2752 38.0917 44.2459 38 44.2459ZM41.7133 47.5725H40.9591V44.7289C40.6832 44.9873 40.3588 45.1779 39.9849 45.3007V44.6162C40.181 44.552 40.3955 44.4301 40.6264 44.2505C40.8573 44.07 41.0159 43.8601 41.1011 43.62H41.7133V47.5725V47.5725ZM44.116 43.62C44.4982 43.62 44.796 43.7566 45.0104 44.0287C45.2661 44.3504 45.3944 44.8847 45.3944 45.6315C45.3944 46.3756 45.2652 46.9108 45.0077 47.2371C44.7951 47.5055 44.4982 47.6394 44.116 47.6394C43.7339 47.6394 43.4251 47.4928 43.1905 47.1977C42.9559 46.9035 42.8386 46.3784 42.8386 45.6233C42.8386 44.8819 42.9678 44.3485 43.2253 44.0232C43.4379 43.7547 43.7348 43.62 44.116 43.62L44.116 43.62ZM44.116 44.2459C44.0253 44.2459 43.9438 44.2752 43.8723 44.333C43.8008 44.3916 43.7449 44.4961 43.7055 44.6464C43.6542 44.8416 43.6276 45.1696 43.6276 45.6315C43.6276 46.0934 43.6514 46.4104 43.6972 46.5828C43.744 46.7559 43.8027 46.8705 43.8732 46.9283C43.9447 46.985 44.0253 47.0144 44.116 47.0144C44.2077 47.0144 44.2893 46.985 44.3607 46.9264C44.4322 46.8687 44.4881 46.7642 44.5275 46.6139C44.5788 46.4205 44.6054 46.0934 44.6054 45.6315C44.6054 45.1696 44.5816 44.8526 44.5358 44.6794C44.489 44.5071 44.4304 44.3916 44.3598 44.333C44.2883 44.2752 44.2077 44.2459 44.116 44.2459ZM47.8293 47.5725H47.0751V44.7289C46.7992 44.9873 46.4748 45.1779 46.1009 45.3007V44.6162C46.2971 44.552 46.5115 44.4301 46.7424 44.2505C46.9734 44.0699 47.1318 43.8601 47.2171 43.62H47.8293V47.5725V47.5725ZM50.232 43.62C50.6142 43.62 50.912 43.7566 51.1264 44.0287C51.3821 44.3504 51.5104 44.8846 51.5104 45.6315C51.5104 46.3756 51.3812 46.9108 51.1237 47.2371C50.9111 47.5055 50.6142 47.6394 50.232 47.6394C49.8499 47.6394 49.5411 47.4928 49.3065 47.1977C49.0719 46.9035 48.9546 46.3784 48.9546 45.6233C48.9546 44.8819 49.0838 44.3485 49.3413 44.0232C49.5539 43.7547 49.8508 43.62 50.232 43.62V43.62ZM50.232 44.2459C50.1413 44.2459 50.0598 44.2752 49.9883 44.333C49.9168 44.3916 49.8609 44.4961 49.8215 44.6464C49.7702 44.8416 49.7436 45.1696 49.7436 45.6315C49.7436 46.0933 49.7675 46.4104 49.8132 46.5828C49.86 46.7559 49.9186 46.8705 49.9892 46.9283C50.0607 46.985 50.1413 47.0143 50.232 47.0143C50.3237 47.0143 50.4053 46.985 50.4767 46.9264C50.5482 46.8687 50.6041 46.7642 50.6435 46.6139C50.6948 46.4205 50.7214 46.0933 50.7214 45.6315C50.7214 45.1696 50.6976 44.8526 50.6518 44.6793C50.605 44.5071 50.5464 44.3916 50.4758 44.333C50.4043 44.2752 50.3237 44.2459 50.232 44.2459L50.232 44.2459ZM53.9453 47.5725H53.1911V44.7289C52.9153 44.9873 52.5908 45.1779 52.2169 45.3007V44.6161C52.4131 44.552 52.6275 44.4301 52.8584 44.2505C53.0894 44.0699 53.2478 43.8601 53.3331 43.62H53.9453V47.5725V47.5725ZM56.348 43.62C56.7302 43.62 57.028 43.7565 57.2425 44.0287C57.4981 44.3504 57.6265 44.8846 57.6265 45.6315C57.6265 46.3756 57.4972 46.9108 57.2397 47.2371C57.0271 47.5055 56.7302 47.6394 56.348 47.6394C55.9659 47.6394 55.6571 47.4928 55.4225 47.1977C55.1879 46.9035 55.0706 46.3784 55.0706 45.6233C55.0706 44.8819 55.1998 44.3485 55.4573 44.0232C55.67 43.7547 55.9668 43.62 56.348 43.62L56.348 43.62ZM56.348 44.2459C56.2573 44.2459 56.1758 44.2752 56.1043 44.333C56.0328 44.3916 55.9769 44.4961 55.9375 44.6464C55.8862 44.8416 55.8596 45.1696 55.8596 45.6315C55.8596 46.0933 55.8835 46.4104 55.9292 46.5827C55.976 46.7559 56.0346 46.8705 56.1052 46.9283C56.1767 46.985 56.2573 47.0143 56.348 47.0143C56.4397 47.0143 56.5212 46.985 56.5927 46.9264C56.6642 46.8687 56.7201 46.7642 56.7596 46.6139C56.8653 46.2153 56.8728 45.076 56.7677 44.6793C56.7211 44.507 56.6624 44.3916 56.5918 44.333C56.5203 44.2752 56.4397 44.2459 56.348 44.2459L56.348 44.2459ZM19.652 37.3546C20.0342 37.3546 20.332 37.4911 20.5465 37.7633C20.8021 38.0849 20.9305 38.6192 20.9305 39.366C20.9305 40.1101 20.8012 40.6453 20.5437 40.9716C20.3311 41.2401 20.0342 41.3739 19.652 41.3739C19.2699 41.3739 18.961 41.2273 18.7265 40.9322C18.4919 40.638 18.3745 40.1129 18.3745 39.3578C18.3745 38.6164 18.5038 38.083 18.7613 37.7578C18.9739 37.4892 19.2708 37.3546 19.652 37.3546V37.3546ZM19.652 37.9804C19.5613 37.9804 19.4798 38.0097 19.4083 38.0675C19.3368 38.1261 19.2809 38.2306 19.2415 38.3809C19.1901 38.5761 19.1636 38.9042 19.1636 39.366C19.1636 39.8279 19.1875 40.145 19.2332 40.3172C19.28 40.4905 19.3386 40.605 19.4092 40.6628C19.4807 40.7195 19.5613 40.7489 19.652 40.7489C19.7437 40.7489 19.8252 40.7195 19.8967 40.6609C19.9682 40.6031 20.024 40.4987 20.0635 40.3484C20.1148 40.155 20.1414 39.8279 20.1414 39.366C20.1414 38.9042 20.1176 38.5871 20.0717 38.4138C20.0251 38.2416 19.9664 38.1261 19.8958 38.0675C19.8243 38.0097 19.7437 37.9804 19.652 37.9804L19.652 37.9804ZM23.3653 41.307H22.6111V38.4634C22.3352 38.7218 22.0108 38.9124 21.6369 39.0352V38.3506C21.8331 38.2865 22.0475 38.1646 22.2784 37.985C22.5094 37.8045 22.6679 37.5946 22.7531 37.3546H23.3653V41.307L23.3653 41.307ZM25.7681 37.3546C26.1502 37.3546 26.448 37.4911 26.6625 37.7633C26.9181 38.0849 27.0464 38.6192 27.0464 39.366C27.0464 40.1101 26.9172 40.6453 26.6597 40.9715C26.4472 41.24 26.1502 41.3739 25.7681 41.3739C25.3859 41.3739 25.0771 41.2273 24.8425 40.9322C24.6079 40.638 24.4905 40.1129 24.4905 39.3578C24.4905 38.6164 24.6198 38.083 24.8773 37.7578C25.09 37.4892 25.3868 37.3546 25.7681 37.3546V37.3546ZM25.7681 37.9804C25.6773 37.9804 25.5958 38.0097 25.5243 38.0675C25.4528 38.1261 25.397 38.2306 25.3575 38.3809C25.3062 38.5761 25.2796 38.9042 25.2796 39.366C25.2796 39.8279 25.3035 40.1449 25.3493 40.3172C25.396 40.4905 25.4546 40.605 25.5252 40.6628C25.5967 40.7195 25.6773 40.7489 25.7681 40.7489C25.8597 40.7489 25.9413 40.7195 26.0127 40.6609C26.0842 40.6031 26.14 40.4987 26.1795 40.3484C26.2309 40.155 26.2575 39.8279 26.2575 39.366C26.2575 38.9042 26.2336 38.5871 26.1877 38.4138C26.1411 38.2416 26.0824 38.1261 26.0118 38.0675C25.9403 38.0097 25.8597 37.9804 25.7681 37.9804ZM29.4813 41.307H28.7271V38.4634C28.4512 38.7218 28.1268 38.9124 27.7529 39.0352V38.3506C27.9491 38.2865 28.1635 38.1646 28.3944 37.985C28.6254 37.8045 28.7839 37.5946 28.8691 37.3546H29.4813V41.307V41.307ZM31.8841 37.3545C32.2662 37.3545 32.5641 37.4911 32.7785 37.7633C33.0341 38.0849 33.1624 38.6192 33.1624 39.366C33.1624 40.1101 33.0332 40.6453 32.7757 40.9715C32.5632 41.24 32.2662 41.3739 31.8841 41.3739C31.5019 41.3739 31.1931 41.2272 30.9585 40.9322C30.7239 40.638 30.6065 40.1129 30.6065 39.3578C30.6065 38.6164 30.7358 38.083 30.9933 37.7578C31.206 37.4892 31.5029 37.3546 31.8841 37.3546V37.3545ZM31.8841 37.9804C31.7933 37.9804 31.7118 38.0097 31.6403 38.0675C31.5688 38.1261 31.5129 38.2306 31.4735 38.3809C31.4222 38.5761 31.3957 38.9042 31.3957 39.366C31.3957 39.8279 31.4195 40.1449 31.4653 40.3172C31.512 40.4905 31.5707 40.605 31.6412 40.6628C31.7127 40.7195 31.7933 40.7489 31.8841 40.7489C31.9757 40.7489 32.0573 40.7195 32.1287 40.6609C32.2002 40.6031 32.2561 40.4987 32.2956 40.3484C32.3469 40.155 32.3735 39.8279 32.3735 39.366C32.3735 38.9042 32.3496 38.5871 32.3038 38.4138C32.257 38.2416 32.1984 38.1261 32.1278 38.0675C32.0563 38.0097 31.9757 37.9804 31.8841 37.9804ZM35.5973 41.307H34.8431V38.4634C34.5672 38.7218 34.2429 38.9124 33.8689 39.0352V38.3506C34.0651 38.2865 34.2795 38.1646 34.5104 37.985C34.7414 37.8045 34.8999 37.5946 34.9852 37.3545H35.5973V41.307V41.307ZM38.0001 37.3545C38.3822 37.3545 38.6801 37.4911 38.8945 37.7633C39.1501 38.0849 39.2785 38.6192 39.2785 39.366C39.2785 40.1101 39.1492 40.6453 38.8917 40.9715C38.6791 41.24 38.3822 41.3739 38.0001 41.3739C37.6179 41.3739 37.3091 41.2272 37.0745 40.9322C36.84 40.638 36.7226 40.1129 36.7226 39.3578C36.7226 38.6164 36.8518 38.083 37.1093 37.7578C37.322 37.4892 37.6189 37.3546 38.0001 37.3546V37.3545ZM38.0001 37.9804C37.9093 37.9804 37.8278 38.0097 37.7564 38.0675C37.6848 38.1261 37.6289 38.2306 37.5895 38.3809C37.5382 38.5761 37.5116 38.9042 37.5116 39.366C37.5116 39.8279 37.5355 40.1449 37.5813 40.3172C37.628 40.4904 37.6867 40.605 37.7572 40.6627C37.8287 40.7195 37.9093 40.7489 38.0001 40.7489C38.0917 40.7489 38.1733 40.7195 38.2447 40.6609C38.3162 40.6031 38.3721 40.4987 38.4116 40.3484C38.4628 40.155 38.4895 39.8279 38.4895 39.366C38.4895 38.9042 38.4656 38.5871 38.4198 38.4138C38.373 38.2416 38.3144 38.1261 38.2438 38.0675C38.1723 38.0097 38.0917 37.9804 38.0001 37.9804ZM41.7133 41.307H40.9591V38.4634C40.6833 38.7218 40.3588 38.9124 39.9849 39.0352V38.3506C40.1811 38.2865 40.3955 38.1646 40.6264 37.985C40.8574 37.8045 41.0159 37.5946 41.1011 37.3545H41.7133V41.307V41.307ZM44.1161 37.3545C44.4983 37.3545 44.7961 37.4911 45.0105 37.7633C45.2661 38.0849 45.3945 38.6192 45.3945 39.366C45.3945 40.1101 45.2652 40.6453 45.0077 40.9715C44.7951 41.24 44.4983 41.3739 44.1161 41.3739C43.7339 41.3739 43.4251 41.2272 43.1905 40.9322C42.9559 40.638 42.8386 40.1129 42.8386 39.3578C42.8386 38.6164 42.9678 38.083 43.2253 37.7577C43.4379 37.4892 43.7349 37.3546 44.1161 37.3546V37.3545ZM44.1161 37.9804C44.0254 37.9804 43.9438 38.0097 43.8724 38.0675C43.8008 38.1261 43.7449 38.2306 43.7056 38.3809C43.6542 38.5761 43.6276 38.9041 43.6276 39.366C43.6276 39.8279 43.6515 40.1449 43.6973 40.3172C43.7441 40.4904 43.8027 40.605 43.8732 40.6627C43.9447 40.7195 44.0254 40.7489 44.1161 40.7489C44.2077 40.7489 44.2893 40.7195 44.3607 40.6609C44.4322 40.6031 44.4881 40.4987 44.5276 40.3484C44.5788 40.155 44.6054 39.8279 44.6054 39.366C44.6054 38.9041 44.5816 38.5871 44.5358 38.4138C44.4891 38.2416 44.4304 38.1261 44.3598 38.0675C44.2883 38.0097 44.2077 37.9804 44.1161 37.9804ZM47.8293 41.307H47.0751V38.4634C46.7993 38.7218 46.4748 38.9124 46.1009 39.0352V38.3506C46.2971 38.2865 46.5115 38.1646 46.7425 37.985C46.9734 37.8045 47.1319 37.5946 47.2172 37.3545H47.8293V41.307V41.307ZM50.2321 37.3545C50.6143 37.3545 50.9121 37.4911 51.1265 37.7632C51.3821 38.0849 51.5105 38.6192 51.5105 39.366C51.5105 40.1101 51.3813 40.6453 51.1237 40.9715C50.9112 41.24 50.6143 41.3739 50.2321 41.3739C49.8499 41.3739 49.5411 41.2272 49.3065 40.9322C49.0719 40.638 48.9546 40.1129 48.9546 39.3577C48.9546 38.6164 49.0839 38.083 49.3414 37.7577C49.5539 37.4892 49.8509 37.3545 50.2321 37.3545V37.3545ZM50.2321 37.9804C50.1414 37.9804 50.0598 38.0097 49.9883 38.0675C49.9169 38.1261 49.861 38.2306 49.8216 38.3809C49.7702 38.5761 49.7437 38.9041 49.7437 39.366C49.7437 39.8279 49.7675 40.1449 49.8133 40.3172C49.8601 40.4904 49.9187 40.605 49.9893 40.6627C50.0607 40.7195 50.1414 40.7489 50.2321 40.7489C50.3237 40.7489 50.4053 40.7195 50.4767 40.6609C50.5482 40.6031 50.6041 40.4987 50.6436 40.3484C50.6948 40.155 50.7215 39.8279 50.7215 39.366C50.7215 38.9041 50.6976 38.5871 50.6518 38.4138C50.6051 38.2416 50.5465 38.1261 50.4759 38.0675C50.4044 38.0097 50.3237 37.9804 50.2321 37.9804ZM53.9454 41.3069H53.1912V38.4634C52.9153 38.7218 52.5908 38.9124 52.2169 39.0352V38.3506C52.4131 38.2864 52.6275 38.1646 52.8585 37.985C53.0894 37.8044 53.2479 37.5946 53.3332 37.3545H53.9454V41.307V41.3069ZM56.3481 37.3545C56.7303 37.3545 57.0281 37.4911 57.2426 37.7632C57.4982 38.0849 57.6265 38.6192 57.6265 39.366C57.6265 40.1101 57.4973 40.6453 57.2397 40.9715C57.0272 41.24 56.7303 41.3739 56.3481 41.3739C55.9659 41.3739 55.6571 41.2272 55.4225 40.9322C55.1879 40.638 55.0706 40.1129 55.0706 39.3577C55.0706 38.6164 55.1999 38.083 55.4574 37.7577C55.67 37.4892 55.9669 37.3545 56.3481 37.3545V37.3545ZM56.3481 37.9804C56.2573 37.9804 56.1759 38.0097 56.1043 38.0675C56.0328 38.1261 55.977 38.2306 55.9376 38.3808C55.8862 38.5761 55.8597 38.9041 55.8597 39.366C55.8597 39.8279 55.8835 40.1449 55.9293 40.3172C55.9761 40.4904 56.0347 40.605 56.1053 40.6627C56.1767 40.7195 56.2573 40.7489 56.3481 40.7489C56.4397 40.7489 56.5213 40.7195 56.5928 40.6609C56.6643 40.6031 56.7201 40.4987 56.7596 40.3484C56.8653 39.9497 56.8728 38.8105 56.7678 38.4138C56.7211 38.2416 56.6625 38.1261 56.5919 38.0675C56.5204 38.0097 56.4397 37.9804 56.3481 37.9804V37.9804ZM19.6521 31.089C20.0343 31.089 20.332 31.2256 20.5465 31.4977C20.8022 31.8194 20.9305 32.3537 20.9305 33.1005C20.9305 33.8446 20.8012 34.3798 20.5437 34.7061C20.3312 34.9745 20.0343 35.1084 19.6521 35.1084C19.2699 35.1084 18.9611 34.9618 18.7265 34.6667C18.4919 34.3725 18.3746 33.8474 18.3746 33.0923C18.3746 32.3509 18.5038 31.8175 18.7613 31.4922C18.974 31.2237 19.2709 31.089 19.6521 31.089V31.089ZM19.6521 31.7149C19.5613 31.7149 19.4798 31.7442 19.4083 31.802C19.3368 31.8606 19.281 31.9651 19.2416 32.1154C19.1902 32.3106 19.1637 32.6386 19.1637 33.1005C19.1637 33.5624 19.1875 33.8794 19.2333 34.0518C19.2801 34.2249 19.3387 34.3395 19.4092 34.3973C19.4807 34.454 19.5613 34.4834 19.6521 34.4834C19.7437 34.4834 19.8253 34.454 19.8968 34.3954C19.9682 34.3377 20.0241 34.2332 20.0636 34.0829C20.1148 33.8895 20.1415 33.5623 20.1415 33.1005C20.1415 32.6386 20.1176 32.3216 20.0718 32.1483C20.0251 31.9761 19.9665 31.8606 19.8958 31.802C19.8244 31.7442 19.7437 31.7149 19.6521 31.7149L19.6521 31.7149ZM23.3653 35.0415H22.6112V32.1979C22.3353 32.4563 22.0109 32.6469 21.6369 32.7697V32.0851C21.8331 32.021 22.0475 31.8991 22.2784 31.7195C22.5094 31.5389 22.6679 31.3291 22.7532 31.089H23.3653V35.0415V35.0415ZM25.7681 31.089C26.1503 31.089 26.4481 31.2255 26.6625 31.4977C26.9182 31.8194 27.0465 32.3536 27.0465 33.1005C27.0465 33.8446 26.9172 34.3798 26.6597 34.7061C26.4472 34.9745 26.1503 35.1084 25.7681 35.1084C25.3859 35.1084 25.0771 34.9618 24.8425 34.6667C24.6079 34.3725 24.4906 33.8474 24.4906 33.0923C24.4906 32.3509 24.6198 31.8175 24.8773 31.4922C25.09 31.2237 25.3869 31.089 25.7681 31.089V31.089ZM25.7681 31.7149C25.6773 31.7149 25.5959 31.7442 25.5243 31.802C25.4528 31.8606 25.397 31.9651 25.3575 32.1154C25.3062 32.3106 25.2797 32.6386 25.2797 33.1005C25.2797 33.5623 25.3035 33.8794 25.3493 34.0518C25.3961 34.2249 25.4547 34.3395 25.5252 34.3973C25.5967 34.454 25.6773 34.4833 25.7681 34.4833C25.8598 34.4833 25.9413 34.454 26.0128 34.3954C26.0842 34.3377 26.1401 34.2332 26.1796 34.0829C26.2309 33.8895 26.2575 33.5623 26.2575 33.1005C26.2575 32.6386 26.2337 32.3216 26.1878 32.1483C26.1411 31.976 26.0825 31.8606 26.0118 31.802C25.9404 31.7442 25.8598 31.7149 25.7681 31.7149H25.7681ZM29.4813 35.0415H28.7271V32.1979C28.4513 32.4563 28.1269 32.6469 27.753 32.7697V32.0851C27.9491 32.021 28.1635 31.8991 28.3944 31.7195C28.6254 31.5389 28.7839 31.3291 28.8692 31.089H29.4813V35.0415V35.0415ZM31.8841 31.089C32.2663 31.089 32.5641 31.2255 32.7785 31.4977C33.0342 31.8194 33.1625 32.3536 33.1625 33.1005C33.1625 33.8446 33.0333 34.3798 32.7758 34.7061C32.5632 34.9745 32.2663 35.1084 31.8841 35.1084C31.5019 35.1084 31.1932 34.9618 30.9586 34.6666C30.724 34.3725 30.6066 33.8474 30.6066 33.0923C30.6066 32.3509 30.7358 31.8175 30.9933 31.4922C31.206 31.2237 31.5029 31.089 31.8841 31.089V31.089ZM31.8841 31.7149C31.7934 31.7149 31.7118 31.7442 31.6403 31.802C31.5688 31.8606 31.513 31.9651 31.4736 32.1154C31.4223 32.3106 31.3957 32.6386 31.3957 33.1005C31.3957 33.5623 31.4195 33.8794 31.4653 34.0517C31.5121 34.2249 31.5708 34.3395 31.6412 34.3973C31.7128 34.454 31.7934 34.4833 31.8841 34.4833C31.9757 34.4833 32.0574 34.454 32.1288 34.3954C32.2003 34.3376 32.2562 34.2332 32.2956 34.0829C32.3469 33.8895 32.3735 33.5623 32.3735 33.1005C32.3735 32.6386 32.3497 32.3216 32.3038 32.1483C32.2571 31.976 32.1984 31.8606 32.1278 31.8019C32.0563 31.7442 31.9757 31.7149 31.8841 31.7149H31.8841ZM35.5974 35.0415H34.8431V32.1979C34.5673 32.4563 34.2429 32.6469 33.869 32.7697V32.0851C34.0651 32.021 34.2796 31.8991 34.5104 31.7195C34.7414 31.5389 34.9 31.3291 34.9852 31.089H35.5974V35.0415L35.5974 35.0415ZM38.0001 31.089C38.3822 31.089 38.6801 31.2255 38.8945 31.4977C39.1502 31.8193 39.2785 32.3536 39.2785 33.1005C39.2785 33.8446 39.1493 34.3798 38.8918 34.706C38.6792 34.9745 38.3822 35.1084 38.0001 35.1084C37.6179 35.1084 37.3092 34.9617 37.0746 34.6666C36.84 34.3725 36.7226 33.8474 36.7226 33.0923C36.7226 32.3509 36.8518 31.8175 37.1094 31.4922C37.322 31.2237 37.6189 31.089 38.0001 31.089V31.089ZM38.0001 31.7149C37.9094 31.7149 37.8278 31.7442 37.7564 31.8019C37.6849 31.8606 37.629 31.9651 37.5896 32.1154C37.5383 32.3105 37.5117 32.6386 37.5117 33.1005C37.5117 33.5623 37.5355 33.8794 37.5813 34.0517C37.6281 34.2249 37.6868 34.3395 37.7572 34.3973C37.8288 34.454 37.9094 34.4833 38.0001 34.4833C38.0918 34.4833 38.1734 34.454 38.2448 34.3954C38.3163 34.3376 38.3722 34.2332 38.4116 34.0829C38.4629 33.8895 38.4895 33.5623 38.4895 33.1005C38.4895 32.6386 38.4657 32.3215 38.4198 32.1483C38.3731 31.976 38.3144 31.8606 38.2439 31.8019C38.1723 31.7442 38.0918 31.7149 38.0001 31.7149V31.7149ZM41.7134 35.0415H40.9591V32.1979C40.6833 32.4563 40.3589 32.6469 39.985 32.7697V32.0851C40.1811 32.021 40.3956 31.8991 40.6265 31.7195C40.8574 31.5389 41.0159 31.3291 41.1012 31.089H41.7134V35.0415V35.0415ZM44.1161 31.089C44.4983 31.089 44.7961 31.2255 45.0105 31.4977C45.2662 31.8193 45.3945 32.3536 45.3945 33.1005C45.3945 33.8446 45.2653 34.3798 45.0078 34.706C44.7952 34.9745 44.4983 35.1084 44.1161 35.1084C43.734 35.1084 43.4252 34.9617 43.1906 34.6666C42.956 34.3725 42.8387 33.8474 42.8387 33.0923C42.8387 32.3509 42.9679 31.8175 43.2254 31.4922C43.438 31.2237 43.7349 31.089 44.1161 31.089V31.089ZM44.1161 31.7148C44.0254 31.7148 43.9439 31.7442 43.8724 31.8019C43.8009 31.8606 43.745 31.9651 43.7056 32.1154C43.6543 32.3105 43.6277 32.6386 43.6277 33.1005C43.6277 33.5623 43.6515 33.8794 43.6973 34.0517C43.7441 34.2249 43.8027 34.3395 43.8733 34.3972C43.9448 34.454 44.0254 34.4833 44.1161 34.4833C44.2078 34.4833 44.2893 34.454 44.3608 34.3954C44.4323 34.3376 44.4882 34.2331 44.5276 34.0829C44.5789 33.8895 44.6055 33.5623 44.6055 33.1005C44.6055 32.6386 44.5817 32.3215 44.5358 32.1483C44.4891 31.976 44.4305 31.8606 44.3599 31.8019C44.2884 31.7442 44.2078 31.7148 44.1161 31.7148V31.7148ZM47.8294 35.0415H47.0752V32.1979C46.7993 32.4563 46.4749 32.6469 46.101 32.7697V32.0851C46.2971 32.021 46.5116 31.8991 46.7425 31.7195C46.9734 31.5389 47.1319 31.3291 47.2172 31.089H47.8294V35.0415V35.0415ZM50.2321 31.089C50.6143 31.089 50.9121 31.2255 51.1265 31.4977C51.3822 31.8193 51.5105 32.3536 51.5105 33.1005C51.5105 33.8446 51.3813 34.3798 51.1238 34.706C50.9112 34.9745 50.6143 35.1083 50.2321 35.1083C49.85 35.1083 49.5411 34.9617 49.3066 34.6666C49.072 34.3725 48.9547 33.8474 48.9547 33.0923C48.9547 32.3509 49.0839 31.8175 49.3414 31.4922C49.554 31.2237 49.8509 31.089 50.2321 31.089V31.089ZM50.2321 31.7148C50.1414 31.7148 50.0599 31.7442 49.9884 31.8019C49.9169 31.8606 49.861 31.9651 49.8216 32.1154C49.7702 32.3105 49.7437 32.6386 49.7437 33.1005C49.7437 33.5623 49.7676 33.8794 49.8133 34.0517C49.8601 34.2249 49.9187 34.3395 49.9893 34.3972C50.0608 34.454 50.1414 34.4833 50.2321 34.4833C50.3238 34.4833 50.4053 34.454 50.4768 34.3954C50.5483 34.3376 50.6042 34.2331 50.6436 34.0828C50.6949 33.8895 50.7215 33.5623 50.7215 33.1005C50.7215 32.6386 50.6977 32.3215 50.6518 32.1483C50.6051 31.976 50.5465 31.8606 50.4759 31.8019C50.4044 31.7442 50.3238 31.7148 50.2321 31.7148V31.7148ZM53.9454 35.0415H53.1912V32.1979C52.9154 32.4563 52.5909 32.6468 52.217 32.7697V32.0851C52.4131 32.021 52.6276 31.8991 52.8585 31.7194C53.0895 31.5389 53.2479 31.3291 53.3332 31.089H53.9454V35.0415V35.0415ZM56.3481 31.089C56.7303 31.089 57.0281 31.2255 57.2426 31.4977C57.4982 31.8193 57.6266 32.3536 57.6266 33.1005C57.6266 33.8446 57.4973 34.3798 57.2398 34.706C57.0272 34.9745 56.7303 35.1083 56.3481 35.1083C55.966 35.1083 55.6571 34.9617 55.4226 34.6666C55.188 34.3725 55.0706 33.8474 55.0706 33.0923C55.0706 32.3509 55.1999 31.8175 55.4574 31.4922C55.6701 31.2237 55.9669 31.089 56.3481 31.089V31.089ZM56.3481 31.7148C56.2574 31.7148 56.1759 31.7442 56.1044 31.8019C56.0329 31.8606 55.977 31.9651 55.9376 32.1154C55.8863 32.3105 55.8597 32.6386 55.8597 33.1005C55.8597 33.5623 55.8836 33.8794 55.9293 34.0517C55.9761 34.2249 56.0347 34.3395 56.1053 34.3972C56.1768 34.454 56.2574 34.4833 56.3481 34.4833C56.4398 34.4833 56.5213 34.454 56.5928 34.3954C56.6643 34.3376 56.7201 34.2331 56.7596 34.0828C56.8654 33.6843 56.8729 32.545 56.7678 32.1483C56.7212 31.976 56.6625 31.8606 56.5919 31.8019C56.5204 31.7442 56.4398 31.7148 56.3481 31.7148V31.7148ZM19.6521 25.4494C19.5614 25.4494 19.4799 25.4787 19.4084 25.5365C19.3369 25.5951 19.281 25.6996 19.2416 25.8499C19.1902 26.0451 19.1637 26.3731 19.1637 26.835C19.1637 27.2969 19.1876 27.6139 19.2333 27.7862C19.2801 27.9594 19.3387 28.074 19.4093 28.1317C19.4808 28.1885 19.5614 28.2179 19.6521 28.2179C19.7438 28.2179 19.8253 28.1885 19.8968 28.1299C19.9683 28.0721 20.0241 27.9677 20.0636 27.8174C20.1149 27.624 20.1415 27.2969 20.1415 26.835C20.1415 26.3731 20.1177 26.0561 20.0718 25.8828C20.0251 25.7106 19.9665 25.5951 19.8959 25.5365C19.8244 25.4787 19.7438 25.4494 19.6521 25.4494H19.6521ZM23.3654 28.776H22.6112V25.9324C22.3353 26.1908 22.0109 26.3814 21.637 26.5042V25.8196C21.8332 25.7555 22.0476 25.6336 22.2785 25.454C22.5095 25.2735 22.668 25.0636 22.7532 24.8235H23.3654V28.776V28.776ZM25.7681 24.8235C26.1503 24.8235 26.4481 24.9601 26.6626 25.2322C26.9182 25.5539 27.0465 26.0882 27.0465 26.835C27.0465 27.5791 26.9173 28.1143 26.6598 28.4405C26.4472 28.709 26.1503 28.8429 25.7681 28.8429C25.3859 28.8429 25.0772 28.6962 24.8425 28.4012C24.608 28.107 24.4906 27.5819 24.4906 26.8268C24.4906 26.0854 24.6199 25.552 24.8774 25.2267C25.0901 24.9582 25.3869 24.8236 25.7681 24.8236V24.8235ZM25.7681 25.4494C25.6774 25.4494 25.5959 25.4787 25.5244 25.5365C25.4529 25.5951 25.397 25.6996 25.3576 25.8499C25.3063 26.0451 25.2797 26.3731 25.2797 26.835C25.2797 27.2969 25.3036 27.6139 25.3494 27.7862C25.3961 27.9594 25.4547 28.074 25.5253 28.1317C25.5968 28.1885 25.6774 28.2179 25.7681 28.2179C25.8598 28.2179 25.9414 28.1885 26.0128 28.1299C26.0843 28.0721 26.1401 27.9677 26.1796 27.8174C26.231 27.624 26.2576 27.2969 26.2576 26.835C26.2576 26.3731 26.2337 26.0561 26.1878 25.8828C26.1411 25.7106 26.0825 25.5951 26.0119 25.5365C25.9404 25.4787 25.8598 25.4494 25.7681 25.4494H25.7681ZM29.4814 28.7759H28.7272V25.9323C28.4513 26.1908 28.1269 26.3814 27.753 26.5042V25.8196C27.9492 25.7554 28.1636 25.6336 28.3945 25.454C28.6255 25.2734 28.784 25.0636 28.8692 24.8235H29.4814V28.776V28.7759ZM31.8841 24.8235C32.2663 24.8235 32.5642 24.9601 32.7786 25.2322C33.0342 25.5539 33.1625 26.0882 33.1625 26.835C33.1625 27.5791 33.0333 28.1143 32.7758 28.4405C32.5632 28.709 32.2663 28.8429 31.8841 28.8429C31.502 28.8429 31.1932 28.6962 30.9586 28.4012C30.724 28.107 30.6066 27.5819 30.6066 26.8267C30.6066 26.0854 30.7359 25.552 30.9934 25.2267C31.206 24.9582 31.503 24.8235 31.8841 24.8235V24.8235ZM31.8841 25.4494C31.7934 25.4494 31.7119 25.4787 31.6404 25.5365C31.5689 25.5951 31.513 25.6996 31.4736 25.8498C31.4223 26.0451 31.3957 26.3731 31.3957 26.835C31.3957 27.2969 31.4195 27.6139 31.4653 27.7862C31.5121 27.9594 31.5708 28.074 31.6413 28.1317C31.7128 28.1885 31.7934 28.2179 31.8841 28.2179C31.9758 28.2179 32.0574 28.1885 32.1288 28.1299C32.2003 28.0721 32.2562 27.9677 32.2957 27.8174C32.3469 27.624 32.3735 27.2969 32.3735 26.835C32.3735 26.3731 32.3497 26.0561 32.3039 25.8828C32.2571 25.7106 32.1985 25.5951 32.1279 25.5365C32.0564 25.4787 31.9758 25.4494 31.8841 25.4494ZM35.5974 28.7759H34.8432V25.9323C34.5673 26.1908 34.2429 26.3814 33.869 26.5041V25.8196C34.0652 25.7554 34.2796 25.6336 34.5105 25.454C34.7415 25.2734 34.9 25.0636 34.9852 24.8235H35.5974V28.7759V28.7759ZM38.0002 24.8235C38.3823 24.8235 38.6802 24.9601 38.8946 25.2322C39.1502 25.5539 39.2786 26.0881 39.2786 26.835C39.2786 27.5791 39.1493 28.1143 38.8918 28.4405C38.6792 28.709 38.3823 28.8429 38.0002 28.8429C37.618 28.8429 37.3092 28.6962 37.0746 28.4012C36.84 28.107 36.7227 27.5819 36.7227 26.8267C36.7227 26.0854 36.8519 25.552 37.1094 25.2267C37.322 24.9582 37.6189 24.8235 38.0002 24.8235V24.8235ZM38.0002 25.4494C37.9094 25.4494 37.8279 25.4787 37.7564 25.5365C37.6849 25.5951 37.629 25.6996 37.5896 25.8498C37.5383 26.0451 37.5117 26.3731 37.5117 26.835C37.5117 27.2968 37.5356 27.6139 37.5814 27.7862C37.6281 27.9594 37.6868 28.074 37.7573 28.1317C37.8288 28.1885 37.9094 28.2178 38.0002 28.2178C38.0918 28.2178 38.1734 28.1885 38.2448 28.1299C38.3163 28.0721 38.3722 27.9677 38.4117 27.8174C38.4629 27.624 38.4895 27.2968 38.4895 26.835C38.4895 26.3731 38.4657 26.0561 38.4199 25.8828C38.3731 25.7106 38.3145 25.5951 38.2439 25.5365C38.1724 25.4787 38.0918 25.4494 38.0002 25.4494ZM41.7134 28.7759H40.9592V25.9323C40.6834 26.1908 40.3589 26.3814 39.985 26.5041V25.8196C40.1812 25.7554 40.3956 25.6335 40.6265 25.454C40.8575 25.2734 41.016 25.0636 41.1012 24.8235H41.7134V28.7759V28.7759ZM44.1162 24.8235C44.4984 24.8235 44.7962 24.96 45.0106 25.2322C45.2662 25.5539 45.3946 26.0881 45.3946 26.835C45.3946 27.5791 45.2653 28.1143 45.0078 28.4405C44.7952 28.709 44.4984 28.8429 44.1162 28.8429C43.734 28.8429 43.4252 28.6962 43.1906 28.4012C42.956 28.107 42.8387 27.5819 42.8387 26.8267C42.8387 26.0854 42.9679 25.552 43.2254 25.2267C43.438 24.9582 43.735 24.8235 44.1162 24.8235V24.8235ZM44.1162 25.4494C44.0254 25.4494 43.9439 25.4787 43.8724 25.5365C43.8009 25.5951 43.745 25.6996 43.7057 25.8498C43.6543 26.0451 43.6277 26.3731 43.6277 26.835C43.6277 27.2968 43.6516 27.6139 43.6974 27.7862C43.7441 27.9594 43.8028 28.074 43.8733 28.1317C43.9448 28.1885 44.0254 28.2178 44.1162 28.2178C44.2078 28.2178 44.2894 28.1885 44.3608 28.1299C44.4323 28.0721 44.4882 27.9677 44.5277 27.8174C44.5789 27.624 44.6055 27.2968 44.6055 26.835C44.6055 26.3731 44.5817 26.0561 44.5359 25.8828C44.4892 25.7105 44.4305 25.5951 44.3599 25.5365C44.2884 25.4787 44.2078 25.4494 44.1162 25.4494ZM47.8294 28.7759H47.0752V25.9323C46.7994 26.1907 46.4749 26.3814 46.101 26.5041V25.8196C46.2972 25.7554 46.5116 25.6335 46.7426 25.454C46.9735 25.2734 47.132 25.0636 47.2173 24.8235H47.8294V28.7759V28.7759ZM50.2322 24.8235C50.6144 24.8235 50.9121 24.96 51.1266 25.2322C51.3822 25.5539 51.5106 26.0881 51.5106 26.835C51.5106 27.5791 51.3813 28.1143 51.1238 28.4405C50.9113 28.709 50.6144 28.8429 50.2322 28.8429C49.85 28.8429 49.5412 28.6962 49.3066 28.4011C49.072 28.107 48.9547 27.5819 48.9547 26.8267C48.9547 26.0853 49.084 25.552 49.3415 25.2267C49.554 24.9582 49.851 24.8235 50.2322 24.8235V24.8235ZM50.2322 25.4494C50.1414 25.4494 50.0599 25.4787 49.9884 25.5364C49.9169 25.5951 49.8611 25.6996 49.8217 25.8498C49.7703 26.0451 49.7438 26.3731 49.7438 26.835C49.7438 27.2968 49.7676 27.6139 49.8134 27.7862C49.8601 27.9594 49.9188 28.074 49.9894 28.1317C50.0608 28.1885 50.1414 28.2178 50.2322 28.2178C50.3238 28.2178 50.4054 28.1885 50.4768 28.1299C50.5483 28.0721 50.6042 27.9677 50.6436 27.8174C50.6949 27.624 50.7216 27.2968 50.7216 26.835C50.7216 26.3731 50.6977 26.0561 50.6519 25.8828C50.6052 25.7105 50.5466 25.5951 50.4759 25.5364C50.4045 25.4787 50.3238 25.4494 50.2322 25.4494ZM53.9454 28.7759H53.1913V25.9323C52.9154 26.1907 52.5909 26.3814 52.217 26.5041V25.8196C52.4132 25.7554 52.6276 25.6335 52.8585 25.454C53.0895 25.2734 53.248 25.0636 53.3333 24.8235H53.9454V28.7759V28.7759ZM56.3482 24.8235C56.7304 24.8235 57.0281 24.96 57.2426 25.2322C57.4983 25.5538 57.6266 26.0881 57.6266 26.835C57.6266 27.5791 57.4973 28.1143 57.2398 28.4405C57.0273 28.709 56.7304 28.8429 56.3482 28.8429C55.966 28.8429 55.6572 28.6962 55.4226 28.4011C55.188 28.107 55.0707 27.5819 55.0707 26.8267C55.0707 26.0853 55.1999 25.552 55.4575 25.2267C55.6701 24.9582 55.967 24.8235 56.3482 24.8235V24.8235ZM56.3482 25.4494C56.2574 25.4494 56.176 25.4787 56.1044 25.5364C56.0329 25.5951 55.9771 25.6996 55.9376 25.8498C55.8863 26.045 55.8598 26.3731 55.8598 26.835C55.8598 27.2968 55.8836 27.6139 55.9294 27.7862C55.9762 27.9594 56.0348 28.074 56.1053 28.1317C56.1768 28.1885 56.2574 28.2178 56.3482 28.2178C56.4398 28.2178 56.5214 28.1885 56.5929 28.1299C56.6644 28.0721 56.7202 27.9676 56.7597 27.8174C56.8654 27.4187 56.8729 26.2795 56.7679 25.8828C56.7212 25.7105 56.6626 25.5951 56.5919 25.5364C56.5205 25.4787 56.4398 25.4493 56.3482 25.4493V25.4494Z" fill="#FFFFFE"/>
<path d="M10.6231 52.6838C10.0029 52.6838 9.5 53.1867 9.5 53.8069C9.5 54.4272 10.0029 54.93 10.6231 54.93H65.377C65.9972 54.93 66.5001 54.4272 66.5001 53.8069C66.5001 53.1867 65.9972 52.6838 65.377 52.6838H10.6231Z" fill="#FFFFFE"/>
</g>
<defs>
<clipPath id="clip0_149_1847">
<rect width="76" height="76" fill="white"/>
</clipPath>
</defs>
</svg>
