<svg width="76" height="76" viewBox="0 0 76 76" fill="none" xmlns="http://www.w3.org/2000/svg">
<g clip-path="url(#clip0_149_1796)">
<path d="M66.5 0H9.50003C4.25331 0 0 4.25331 0 9.50003V66.5C0 71.7467 4.25331 76 9.50003 76H66.5C71.7467 76 76 71.7467 76 66.5V9.50003C76 4.25331 71.7467 0 66.5 0Z" fill="#795548"/>
<path fill-rule="evenodd" clip-rule="evenodd" d="M26.1414 18.6518C27.6725 13.3577 32.402 9.5 38.0001 9.5C43.5981 9.5 48.3276 13.3577 49.8587 18.6519C57.2738 16.0051 66.2667 21.343 66.2667 30.8094C66.2667 37.9082 60.7236 43.6629 53.886 43.6629C41.7483 43.6629 34.2518 43.6629 22.1141 43.6629C15.2764 43.6629 9.7334 37.9082 9.7334 30.8094C9.7334 21.3431 18.7263 16.0049 26.1413 18.6518L26.1414 18.6518Z" fill="#FFFFFE"/>
<path d="M19.7671 51.2045L15.7521 55.2103L15.0234 55.9372L15.7521 56.6642L19.7671 60.6699V57.3303L28.9889 57.3304H30.3875V55.9373V44.6036H27.5902V54.5441L19.7671 54.544V51.2045L19.7671 51.2045ZM48.3366 44.5769V54.6174L56.1117 54.6173V51.2045L60.1267 55.2103L60.8553 55.9372L60.1267 56.6642L56.1117 60.6699V57.257L47.0116 57.2571H45.6866V55.9373V44.5769H48.3366V44.5769ZM39.3989 44.41V61.1746H44.7345L38.0003 66.5001L31.266 61.1746H36.6016V44.41H39.3989Z" fill="#FFFFFE"/>
</g>
<defs>
<clipPath id="clip0_149_1796">
<rect width="76" height="76" fill="white"/>
</clipPath>
</defs>
</svg>
