<svg width="76" height="76" viewBox="0 0 76 76" fill="none" xmlns="http://www.w3.org/2000/svg">
<g clip-path="url(#clip0_149_1769)">
<path d="M66.5 0H9.50003C4.25331 0 0 4.25331 0 9.50003V66.5C0 71.7467 4.25331 76 9.50003 76H66.5C71.7467 76 76 71.7467 76 66.5V9.50003C76 4.25331 71.7467 0 66.5 0Z" fill="#C0CA33"/>
<path d="M54.1649 56.0583V59.1077H55.6406V60.5625H51.2344V59.1077H52.7101V56.0583H54.1649Z" fill="#FFFFFE"/>
<path fill-rule="evenodd" clip-rule="evenodd" d="M42.1123 41.5806H64.7628C65.0651 41.5806 65.3125 41.8589 65.3125 42.1985V56.1232C65.3125 56.4629 65.0649 56.7411 64.7628 56.7411H42.1123C41.8101 56.7411 41.5625 56.4631 41.5625 56.1232V42.1985C41.5625 41.8587 41.8099 41.5806 42.1123 41.5806Z" fill="#FFFFFE"/>
<path d="M54.0312 32.0625V41.5806H52.8438V32.0625H54.0312Z" fill="#FFFFFE"/>
<path d="M31.4502 20.0527H42.7497V21.2402H31.4502V20.0527Z" fill="#FFFFFE"/>
<path d="M54.1649 27.5402V30.5896H55.6406V32.0443H51.2344V30.5896H52.7101V27.5402H54.1649Z" fill="#FFFFFE"/>
<path fill-rule="evenodd" clip-rule="evenodd" d="M42.1123 13.0625H64.7628C65.0651 13.0625 65.3125 13.3407 65.3125 13.6804V27.6051C65.3125 27.9447 65.0649 28.223 64.7628 28.223H42.1123C41.8101 28.223 41.5625 27.9449 41.5625 27.6051V13.6804C41.5625 13.3406 41.8099 13.0625 42.1123 13.0625Z" fill="#FFFFFE"/>
<path d="M22.1024 27.5402V30.5896H23.5781V32.0443H19.1719V30.5896H20.6476V27.5402H22.1024Z" fill="#FFFFFE"/>
<path fill-rule="evenodd" clip-rule="evenodd" d="M10.0498 13.0625H32.7003C33.0026 13.0625 33.25 13.3407 33.25 13.6804V27.6051C33.25 27.9447 33.0024 28.223 32.7003 28.223H10.0498C9.7476 28.223 9.5 27.9449 9.5 27.6051V13.6804C9.5 13.3406 9.74738 13.0625 10.0498 13.0625Z" fill="#FFFFFE"/>
<path fill-rule="evenodd" clip-rule="evenodd" d="M9.5 34.4744H37.1645V42.75H9.5V34.4744ZM13.1986 37.6209C13.7462 37.6209 14.19 38.0647 14.19 38.6122C14.19 39.1597 13.7462 39.6035 13.1986 39.6035C12.6512 39.6035 12.2073 39.1597 12.2073 38.6122C12.2073 38.0647 12.6512 37.6209 13.1986 37.6209ZM21.6626 37.6209C22.2101 37.6209 22.6539 38.0647 22.6539 38.6122C22.6539 39.1597 22.2101 39.6035 21.6626 39.6035C21.1151 39.6035 20.6713 39.1597 20.6713 38.6122C20.6713 38.0647 21.1151 37.6209 21.6626 37.6209ZM17.4306 37.6209C17.9781 37.6209 18.4219 38.0647 18.4219 38.6122C18.4219 39.1597 17.9781 39.6035 17.4306 39.6035C16.8831 39.6035 16.4393 39.1597 16.4393 38.6122C16.4393 38.0647 16.8831 37.6209 17.4306 37.6209Z" fill="#FFFFFE"/>
<path fill-rule="evenodd" clip-rule="evenodd" d="M9.5 45.1619H37.1645V53.4375H9.5V45.1619ZM13.1986 48.3084C13.7462 48.3084 14.19 48.7522 14.19 49.2997C14.19 49.8472 13.7462 50.291 13.1986 50.291C12.6512 50.291 12.2073 49.8472 12.2073 49.2997C12.2073 48.7522 12.6512 48.3084 13.1986 48.3084ZM21.6626 48.3084C22.2101 48.3084 22.6539 48.7522 22.6539 49.2997C22.6539 49.8472 22.2101 50.291 21.6626 50.291C21.1151 50.291 20.6713 49.8472 20.6713 49.2997C20.6713 48.7522 21.1151 48.3084 21.6626 48.3084ZM17.4306 48.3084C17.9781 48.3084 18.4219 48.7522 18.4219 49.2997C18.4219 49.8472 17.9781 50.291 17.4306 50.291C16.8831 50.291 16.4393 49.8472 16.4393 49.2997C16.4393 48.7522 16.8831 48.3084 17.4306 48.3084Z" fill="#FFFFFE"/>
<path fill-rule="evenodd" clip-rule="evenodd" d="M9.5 55.8494H37.1645V64.125H9.5V55.8494ZM13.1986 58.9959C13.7462 58.9959 14.19 59.4397 14.19 59.9872C14.19 60.5347 13.7462 60.9785 13.1986 60.9785C12.6512 60.9785 12.2073 60.5347 12.2073 59.9872C12.2073 59.4397 12.6512 58.9959 13.1986 58.9959ZM21.6626 58.9959C22.2101 58.9959 22.6539 59.4397 22.6539 59.9872C22.6539 60.5347 22.2101 60.9785 21.6626 60.9785C21.1151 60.9785 20.6713 60.5347 20.6713 59.9872C20.6713 59.4397 21.1151 58.9959 21.6626 58.9959ZM17.4306 58.9959C17.9781 58.9959 18.4219 59.4397 18.4219 59.9872C18.4219 60.5347 17.9781 60.9785 17.4306 60.9785C16.8831 60.9785 16.4393 60.5347 16.4393 59.9872C16.4393 59.4397 16.8831 58.9959 17.4306 58.9959Z" fill="#FFFFFE"/>
</g>
<defs>
<clipPath id="clip0_149_1769">
<rect width="76" height="76" fill="white"/>
</clipPath>
</defs>
</svg>
