<svg width="76" height="76" viewBox="0 0 76 76" fill="none" xmlns="http://www.w3.org/2000/svg">
<g clip-path="url(#clip0_149_1875)">
<path d="M66.5 0H9.50003C4.25331 0 0 4.25331 0 9.50003V66.5C0 71.7467 4.25331 76 9.50003 76H66.5C71.7467 76 76 71.7467 76 66.5V9.50003C76 4.25331 71.7467 0 66.5 0Z" fill="#2483FF"/>
<g clip-path="url(#clip1_149_1875)">
<path d="M57 42.6C57 49.8 45.9 57.3 38 59.9C30.1 57.3 19 49.8 19 42.6V20.9L38 15.1L57 20.9V42.6Z" fill="white"/>
<path d="M50.7 30.3C50.3 29.9 49.7 29.9 49.3 30.3L36 43.6L28.7 36.3C28.3 35.9 27.7 35.9 27.3 36.3C26.9 36.7 26.9 37.3 27.3 37.7L35.3 45.7C35.5 45.9 35.8 46 36 46C36.3 46 36.5 45.9 36.7 45.7L50.7 31.7C51.1 31.3 51.1 30.7 50.7 30.3Z" fill="#2483FF"/>
</g>
</g>
<defs>
<clipPath id="clip0_149_1875">
<rect width="76" height="76" fill="white"/>
</clipPath>
<clipPath id="clip1_149_1875">
<rect width="42" height="49" fill="white" transform="translate(17 13)"/>
</clipPath>
</defs>
</svg>
