<svg width="76" height="76" viewBox="0 0 76 76" fill="none" xmlns="http://www.w3.org/2000/svg">
<g clip-path="url(#clip0_149_1864)">
<path d="M66.5 0H9.50003C4.25331 0 0 4.25331 0 9.50003V66.5C0 71.7467 4.25331 76 9.50003 76H66.5C71.7467 76 76 71.7467 76 66.5V9.50003C76 4.25331 71.7467 0 66.5 0Z" fill="#2483FF"/>
<path d="M38 68L36.5238 66.4304C36.1922 66.0777 35.8709 65.7187 35.5603 65.3715C35.0355 64.785 34.5398 64.2309 34.0217 63.7335C33.2046 62.9489 32.1733 62.256 30.8688 61.6151C30.2369 61.3044 29.5952 61.0104 28.9157 60.699L28.9048 60.694C27.9228 60.2438 26.9073 59.7782 25.8761 59.2417C23.3064 57.9042 21.2582 56.3435 19.6138 54.4703C18.4197 53.11 17.4314 51.5818 16.6765 49.9281C15.9134 48.2566 15.4058 46.4941 15.1679 44.6895C15.0799 44.0202 15.0254 43.3053 15.001 42.5031L15 42.4698V42.4364L15.0183 20.1606L16.8661 19.9762C24.4079 19.2236 31.424 16.1381 36.6219 11.2881L38.0025 10L39.3829 11.2883C44.5793 16.1376 51.5937 19.2229 59.134 19.9759L60.9817 20.1604L61 42.4698L60.999 42.5031C60.9746 43.3053 60.9201 44.0202 60.8322 44.6887C60.5942 46.4941 60.0866 48.2567 59.3235 49.9281C58.5686 51.5818 57.5803 53.11 56.3862 54.4703C54.7418 56.3435 52.6935 57.9042 50.1243 59.2415C49.0924 59.7784 48.0767 60.244 47.0945 60.6943L47.0847 60.6988C46.4048 61.0103 45.7631 61.3044 45.1319 61.6148C43.8267 62.2559 42.7954 62.9489 41.9782 63.7335C41.4602 64.2308 40.9646 64.7848 40.4398 65.3713C40.1291 65.7185 39.8079 66.0776 39.4762 66.4303L38 68Z" fill="white"/>
<path d="M38.3522 59.926C37.0026 58.7492 35.4169 57.7298 33.5247 56.821C32.7386 56.4431 31.9835 56.1048 31.1841 55.7466L31.1748 55.7424C30.1104 55.2654 29.1115 54.8176 28.1239 54.3152C26.0692 53.2695 24.4727 52.0959 23.2445 50.7281C22.3885 49.7746 21.6802 48.7038 21.1393 47.5455C20.5978 46.3858 20.2382 45.1675 20.0706 43.9246C20.0087 43.4643 19.9685 42.95 19.9482 42.3572L19.9632 24.5158C26.7289 23.2161 33.0539 20.4852 38.3546 16.5752C43.6538 20.4844 49.9773 23.2153 56.7412 24.5151L56.7563 42.3563C56.736 42.9493 56.6959 43.4636 56.6336 43.9263C56.4663 45.1673 56.1068 46.3859 55.5651 47.5457C55.0243 48.7039 54.316 49.7746 53.4599 50.7282C52.2318 52.096 50.6355 53.2695 48.5798 54.3156C47.591 54.8186 46.5909 55.2668 45.5321 55.7414L45.5123 55.7503C44.7156 56.1072 43.963 56.4445 43.1786 56.8215C41.2877 57.7297 39.7019 58.7491 38.3522 59.926Z" fill="#2483FF"/>
<path d="M38.3525 47.57C43.7189 47.57 48.0693 43.2197 48.0693 37.8532C48.0693 32.4868 43.7189 28.1365 38.3525 28.1365C32.9861 28.1365 28.6357 32.4868 28.6357 37.8532C28.6357 43.2197 32.9861 47.57 38.3525 47.57Z" fill="#F3F6FF"/>
<path d="M37.011 42.1746C36.51 42.1746 36.0091 41.9835 35.6269 41.6013L33.5811 39.5555C32.8167 38.7911 32.8167 37.5517 33.5811 36.7872C34.3456 36.0227 35.585 36.0227 36.3495 36.7872L37.0111 37.4488L40.3549 34.105C41.1193 33.3405 42.3587 33.3405 43.1232 34.105C43.8876 34.8695 43.8876 36.1088 43.1232 36.8733L38.3952 41.6013C38.0129 41.9836 37.512 42.1746 37.011 42.1746Z" fill="#2483FF"/>
</g>
<defs>
<clipPath id="clip0_149_1864">
<rect width="76" height="76" fill="white"/>
</clipPath>
</defs>
</svg>
