<svg width="76" height="76" viewBox="0 0 76 76" fill="none" xmlns="http://www.w3.org/2000/svg">
<g clip-path="url(#clip0_149_1736)">
<path d="M66.5 0H9.50003C4.25331 0 0 4.25331 0 9.50003V66.5C0 71.7467 4.25331 76 9.50003 76H66.5C71.7467 76 76 71.7467 76 66.5V9.50003C76 4.25331 71.7467 0 66.5 0Z" fill="#EC407A"/>
<path d="M53.6211 60.5624V63.8295H55.2022V65.3881H50.4814V63.8295H52.0625V60.5624H53.6211Z" fill="#FFFFFE"/>
<path fill-rule="evenodd" clip-rule="evenodd" d="M40.7081 45.0514H64.9752C65.2992 45.0514 65.5642 45.3495 65.5642 45.7134V60.632C65.5642 60.9959 65.299 61.294 64.9752 61.294H40.7081C40.3844 61.294 40.1191 60.9961 40.1191 60.632V45.7134C40.1191 45.3493 40.3842 45.0514 40.7081 45.0514Z" fill="#FFFFFE"/>
<path d="M23.3915 45.1985V48.4655H24.9726V50.0241H20.252V48.4655H21.8329V45.1985H23.3915Z" fill="#FFFFFE"/>
<path fill-rule="evenodd" clip-rule="evenodd" d="M10.4786 29.6874H34.7457C35.0697 29.6874 35.3347 29.9856 35.3347 30.3495V45.268C35.3347 45.6319 35.0695 45.93 34.7457 45.93H10.4786C10.1549 45.93 9.88965 45.6321 9.88965 45.268V30.3495C9.88965 29.9854 10.1547 29.6874 10.4786 29.6874Z" fill="#FFFFFE"/>
<path d="M21.6719 29.6875V18.9999V18.1093H22.5625H41.5624V19.8906H23.4531V29.6875H21.6719Z" fill="#FFFFFE"/>
<path d="M51.3598 45.5347V39.2376H34.5537V37.4563H52.2504H53.1411V38.3469V45.5347H51.3598Z" fill="#FFFFFE"/>
<path d="M53.6211 26.9963V30.2634H55.2022V31.822H50.4814V30.2634H52.0625V26.9963H53.6211Z" fill="#FFFFFE"/>
<path fill-rule="evenodd" clip-rule="evenodd" d="M40.7081 11.4854H64.9752C65.2992 11.4854 65.5642 11.7835 65.5642 12.1475V27.066C65.5642 27.4299 65.299 27.728 64.9752 27.728H40.7081C40.3844 27.728 40.1191 27.4301 40.1191 27.066V12.1475C40.1191 11.7833 40.3842 11.4854 40.7081 11.4854Z" fill="#FFFFFE"/>
</g>
<defs>
<clipPath id="clip0_149_1736">
<rect width="76" height="76" fill="white"/>
</clipPath>
</defs>
</svg>
