<svg width="76" height="76" viewBox="0 0 76 76" fill="none" xmlns="http://www.w3.org/2000/svg">
<g clip-path="url(#clip0_149_1750)">
<path d="M66.5 0H9.50004C4.25331 0 0 4.25331 0 9.50004V66.5C0 71.7467 4.25331 76 9.50004 76H66.5C71.7467 76 76 71.7467 76 66.5V9.50004C76 4.25331 71.7467 0 66.5 0Z" fill="#42A5F5"/>
<path d="M38 10.6874C39.9674 10.6874 41.7487 11.485 43.038 12.7744C44.3275 14.0638 45.125 15.8451 45.125 17.8124C45.125 19.7798 44.3275 21.561 43.038 22.8505C41.7487 24.1398 39.9674 24.9375 38 24.9375C36.0327 24.9375 34.2513 24.1398 32.962 22.8505C31.6725 21.5611 30.875 19.7798 30.875 17.8124C30.875 15.8451 31.6725 14.0638 32.962 12.7744C34.2513 11.485 36.0326 10.6874 38 10.6874Z" fill="#FFFFFE"/>
<path d="M21.375 30.875C23.0144 30.875 24.4989 31.5396 25.5733 32.6142C26.6478 33.6886 27.3125 35.173 27.3125 36.8125C27.3125 38.4519 26.6478 39.9363 25.5733 41.0108C24.4988 42.0853 23.0144 42.75 21.375 42.75C19.7355 42.75 18.2512 42.0853 17.1766 41.0108C16.1021 39.9363 15.4375 38.4519 15.4375 36.8125C15.4375 35.1731 16.1021 33.6887 17.1766 32.6142C18.2512 31.5396 19.7356 30.875 21.375 30.875Z" fill="#FFFFFE"/>
<path d="M35.3193 22.1682L24.6318 34.0432L22.8691 32.4567L33.5566 20.5817L35.3193 22.1682Z" fill="#FFFFFE"/>
<path d="M51.3564 32.6142C52.4308 31.5396 53.9152 30.875 55.5547 30.875C57.1941 30.875 58.6785 31.5396 59.753 32.6142C60.8275 33.6887 61.4922 35.1731 61.4922 36.8125C61.4922 38.4519 60.8275 39.9363 59.753 41.0108C58.6785 42.0853 57.1941 42.75 55.5547 42.75C53.9153 42.75 52.4308 42.0853 51.3564 41.0108C50.2818 39.9363 49.6172 38.4519 49.6172 36.8125C49.6172 35.173 50.2818 33.6886 51.3564 32.6142Z" fill="#FFFFFE"/>
<path d="M43.373 20.5817L54.0605 32.4567L52.2979 34.0432L41.6104 22.1682L43.373 20.5817Z" fill="#FFFFFE"/>
<path d="M38.0001 33.2481C39.5195 33.2481 41.039 33.8278 42.1984 34.9872C43.3578 36.1466 43.9375 37.6662 43.9375 39.1856H43.9329C43.9328 40.7078 43.3546 42.2276 42.1983 43.3839C41.039 44.5433 39.5194 45.1231 38.0001 45.1231C36.4806 45.1231 34.9611 44.5433 33.8017 43.3839L33.8017 43.3839C32.6454 42.2276 32.0672 40.7078 32.0671 39.1856H32.0625C32.0625 37.6662 32.6423 36.1467 33.8016 34.9873L33.8017 34.9872C34.9611 33.8278 36.4806 33.248 38.0001 33.248L38.0001 33.2481Z" fill="#FFFFFE"/>
<path d="M39.1875 22.5624V34.4424H36.8125V22.5624H39.1875Z" fill="#FFFFFE"/>
<path d="M26.937 49.5002C28.4024 49.1001 30.0188 49.2581 31.4388 50.069C32.8624 50.882 33.8219 52.1955 34.2221 53.6618C34.6222 55.1272 34.4642 56.7437 33.6533 58.1636C32.8403 59.5872 31.5268 60.5466 30.0606 60.9469C28.5951 61.347 26.9787 61.189 25.5588 60.3781L25.5587 60.3781C24.1351 59.5651 23.1757 58.2516 22.7754 56.7853C22.3753 55.32 22.5333 53.7035 23.3442 52.2836L23.3442 52.2835C24.1572 50.8599 25.4708 49.9004 26.937 49.5002L26.937 49.5002Z" fill="#FFFFFE"/>
<path d="M25.2295 40.3479L28.3819 50.291L26.1183 51.0053L22.9658 41.0623L25.2295 40.3479Z" fill="#FFFFFE"/>
<path d="M18.0001 49.0512C19.3934 49.6622 20.5528 50.803 21.1481 52.3284C21.7436 53.8545 21.6642 55.4776 21.0544 56.8677C20.4434 58.2608 19.3026 59.4203 17.7773 60.0155L17.7771 60.0156C16.2511 60.6111 14.6281 60.5317 13.238 59.922C11.8449 59.311 10.6855 58.1702 10.0902 56.6449L10.0901 56.6447C9.49459 55.1187 9.57397 53.4957 10.1837 52.1055C10.7947 50.7123 11.9355 49.5529 13.4608 48.9576L13.4609 48.9576C14.987 48.3621 16.61 48.4415 18.0002 49.0512L18.0001 49.0512Z" fill="#FFFFFE"/>
<path d="M22.4554 42.0449L18.605 50.6254L16.4434 49.6605L20.2938 41.0801L22.4554 42.0449Z" fill="#FFFFFE"/>
<path d="M49.2694 45.7351C50.3932 44.7139 51.907 44.1215 53.5443 44.1998C55.1829 44.2783 56.6334 45.0122 57.6538 46.1352C58.6749 47.2591 59.2673 48.7729 59.1889 50.4102C59.1105 52.0487 58.3766 53.4992 57.2536 54.5196C56.1298 55.5407 54.616 56.1331 52.9787 56.0547C51.3401 55.9763 49.8896 55.2424 48.8693 54.1194C47.8481 52.9956 47.2557 51.4818 47.3341 49.8445C47.4125 48.2059 48.1464 46.7554 49.2694 45.7351H49.2694Z" fill="#FFFFFE"/>
<path d="M43.5947 38.357L50.916 45.7867L49.2276 47.4469L41.9062 40.0176L43.5947 38.357Z" fill="#FFFFFE"/>
<path d="M41.749 51.7754C43.2421 51.5197 44.8357 51.8356 46.1759 52.7838L46.176 52.7839C47.5167 53.7325 48.3453 55.1309 48.6011 56.6249C48.8568 58.1179 48.5408 59.7115 47.5927 61.0516L47.5924 61.0519C46.6438 62.3925 45.2455 63.2211 43.7517 63.4769C42.2586 63.7326 40.6651 63.4167 39.325 62.4686L39.3247 62.4683C37.984 61.5197 37.1554 60.1213 36.8996 58.6275C36.6439 57.1344 36.9598 55.5409 37.9079 54.2008L37.9081 54.2006C38.8567 52.86 40.2552 52.0313 41.749 51.7754L41.749 51.7754Z" fill="#FFFFFE"/>
<path d="M40.9336 42.504L43.1093 52.7053L40.79 53.197L38.6143 42.9957L40.9336 42.504Z" fill="#FFFFFE"/>
</g>
<defs>
<clipPath id="clip0_149_1750">
<rect width="76" height="76" fill="white"/>
</clipPath>
</defs>
</svg>
