<svg width="76" height="76" viewBox="0 0 76 76" fill="none" xmlns="http://www.w3.org/2000/svg">
<g clip-path="url(#clip0_149_1858)">
<path d="M66.5 0H9.50003C4.25331 0 0 4.25331 0 9.50003V66.5C0 71.7467 4.25331 76 9.50003 76H66.5C71.7467 76 76 71.7467 76 66.5V9.50003C76 4.25331 71.7467 0 66.5 0Z" fill="#8BC34A"/>
<path fill-rule="evenodd" clip-rule="evenodd" d="M30.875 9.55964H66.5V58.2471H34.1665L33.8695 57.9501C34.0946 57.5495 34.296 57.1356 34.4718 56.7111C34.6466 56.2891 34.7969 55.8569 34.9211 55.4173L36.6434 55.4173C37.2881 55.4173 37.9011 55.1616 38.3568 54.7059C38.8125 54.2502 39.0682 53.6372 39.0682 52.9924V51.5076C39.0682 50.8629 38.8125 50.2498 38.3568 49.7941C37.9011 49.3384 37.2881 49.0827 36.6434 49.0827H34.921V49.0827C34.7968 48.6431 34.6466 48.2109 34.4718 47.7888C34.2959 47.3644 34.0945 46.9505 33.8695 46.5499L35.089 45.3303C35.5449 44.8745 35.7978 44.2603 35.7978 43.6158C35.7978 42.9713 35.5449 42.3572 35.089 41.9013L34.0391 40.8514C33.5832 40.3955 32.969 40.1426 32.3245 40.1426C31.7979 40.1426 31.2914 40.3115 30.875 40.6221V9.55963L30.875 9.55964ZM35.989 18.1321H61.3862V20.5072H35.989V18.1321ZM35.989 31.64H61.3862V34.0151H35.989V31.64ZM38.6321 45.1479H61.3862V47.523H38.6321V45.1479Z" fill="#FFFFFE"/>
<path fill-rule="evenodd" clip-rule="evenodd" d="M12.775 43.5073V43.616C12.775 43.9443 12.8984 44.2578 13.1313 44.4907L14.9873 46.3467L14.5465 47.1315C14.3446 47.491 14.1639 47.8623 14.0061 48.2433C13.849 48.6224 13.7139 49.0106 13.6024 49.4056L13.3581 50.2702H10.7374C10.4075 50.2702 10.0966 50.4008 9.86361 50.6338C9.63057 50.8668 9.5 51.1778 9.5 51.5077V52.9925C9.5 53.3223 9.63061 53.6333 9.86366 53.8663C10.0966 54.0993 10.4076 54.2299 10.7374 54.2299H13.3581L13.6024 55.0945C13.7139 55.4892 13.849 55.8773 14.006 56.2563C14.1638 56.6374 14.3446 57.009 14.5466 57.3686L14.9875 58.1534L13.1314 60.0094C12.8982 60.2426 12.7704 60.5547 12.7704 60.8842C12.7704 61.2138 12.8982 61.5259 13.1314 61.7591L14.1813 62.8091C14.4145 63.0423 14.7266 63.1701 15.0562 63.1701C15.3857 63.1701 15.6978 63.0423 15.931 62.809L17.787 60.9531L18.5718 61.3939C18.9314 61.5959 19.3028 61.7767 19.6838 61.9345C20.0629 62.0915 20.451 62.2265 20.8459 62.3381L21.7105 62.5824V65.2031C21.7105 65.5329 21.8411 65.8439 22.0741 66.0768C22.3071 66.3099 22.6181 66.4404 22.948 66.4404H24.4328C24.7626 66.4404 25.0736 66.3098 25.3066 66.0768C25.5396 65.8438 25.6702 65.5329 25.6702 65.2031V62.5824L26.5348 62.3381C26.9296 62.2265 27.3177 62.0915 27.6967 61.9345C28.0779 61.7766 28.4494 61.5959 28.809 61.3938L29.5937 60.9531L31.4497 62.809C31.6827 63.042 31.9962 63.1654 32.3245 63.1654H32.4331C32.7221 63.1405 32.992 63.0164 33.1994 62.809L34.2494 61.7591C34.4826 61.5259 34.6104 61.2138 34.6104 60.8842C34.6104 60.5547 34.4826 60.2426 34.2493 60.0094L32.3934 58.1534L32.8342 57.3686C33.0361 57.009 33.2169 56.6377 33.3748 56.2567C33.5318 55.8776 33.6668 55.4894 33.7783 55.0945L34.0226 54.2299H36.6434C36.9732 54.2299 37.2841 54.0993 37.5171 53.8663C37.7501 53.6333 37.8807 53.3223 37.8807 52.9925V51.5077C37.8807 51.1778 37.7502 50.8668 37.5171 50.6338C37.2842 50.4008 36.9732 50.2702 36.6434 50.2702H34.0226L33.7783 49.4056C33.6668 49.0107 33.5318 48.6225 33.3747 48.2434C33.2169 47.8625 33.0361 47.491 32.8342 47.1315L32.3934 46.3467L34.2494 44.4907C34.4826 44.2575 34.6104 43.9454 34.6104 43.6159C34.6104 43.2863 34.4826 42.9742 34.2494 42.741L33.1994 41.6911C32.9662 41.4579 32.6541 41.3301 32.3246 41.3301C31.995 41.3301 31.6829 41.4579 31.4497 41.6911L29.5937 43.5471L28.8089 43.1062C28.4494 42.9043 28.078 42.7236 27.6971 42.5658C27.3179 42.4087 26.9297 42.2737 26.5347 42.1621L25.6702 41.9178V39.2971C25.6702 38.9673 25.5396 38.6563 25.3066 38.4233C25.0736 38.1903 24.7626 38.0597 24.4328 38.0597H22.948C22.6181 38.0597 22.3071 38.1903 22.0741 38.4233C21.8411 38.6563 21.7105 38.9672 21.7105 39.2971V41.9178L20.8459 42.1621C20.4511 42.2736 20.0631 42.4086 19.6841 42.5656C19.303 42.7235 18.9315 42.9042 18.5719 43.1062L17.7871 43.5471L15.931 41.691C15.6978 41.4578 15.3857 41.33 15.0562 41.33C14.7266 41.33 14.4146 41.4578 14.1813 41.691L13.1314 42.7409C12.924 42.9484 12.7999 43.2183 12.7751 43.5073L12.775 43.5073ZM23.6904 45.1379C25.6542 45.1379 27.4323 45.934 28.7194 47.2211C30.0064 48.5082 30.8026 50.2862 30.8026 52.2501C30.8026 54.2139 30.0064 55.9921 28.7194 57.2791C27.4323 58.5662 25.6542 59.3623 23.6904 59.3623C21.7265 59.3623 19.9484 58.5662 18.6613 57.2791C17.3742 55.9921 16.5782 54.2139 16.5782 52.2501C16.5782 50.2862 17.3742 48.5082 18.6613 47.2211C19.9484 45.934 21.7265 45.1379 23.6904 45.1379Z" fill="#FFFFFE"/>
<path fill-rule="evenodd" clip-rule="evenodd" d="M14.4065 21.1879V21.254C14.4065 21.4538 14.4816 21.6447 14.6234 21.7864L15.7531 22.9161L15.4847 23.3938C15.3618 23.6126 15.2519 23.8386 15.1558 24.0705C15.0602 24.3013 14.978 24.5375 14.9101 24.7779L14.7614 25.3042H13.1662C12.9655 25.3042 12.7762 25.3837 12.6344 25.5255C12.4926 25.6673 12.4131 25.8566 12.4131 26.0574V26.9611C12.4131 27.1619 12.4926 27.3512 12.6344 27.493C12.7762 27.6349 12.9655 27.7143 13.1662 27.7143H14.7614L14.91 28.2406C14.9779 28.4809 15.0602 28.7171 15.1557 28.9477C15.2518 29.1797 15.3618 29.4059 15.4848 29.6247L15.7531 30.1024L14.6234 31.2321C14.4814 31.3741 14.4037 31.564 14.4037 31.7646C14.4037 31.9652 14.4815 32.1552 14.6234 32.2971L15.2624 32.9362C15.4044 33.0782 15.5944 33.1559 15.7949 33.1559C15.9955 33.1559 16.1855 33.0781 16.3274 32.9362L17.4571 31.8065L17.9348 32.0748C18.1536 32.1978 18.3797 32.3078 18.6116 32.4039C18.8424 32.4995 19.0786 32.5817 19.3189 32.6495L19.8452 32.7982V34.3934C19.8452 34.5941 19.9247 34.7834 20.0665 34.9251C20.2083 35.067 20.3976 35.1465 20.5984 35.1465H21.5022C21.7029 35.1465 21.8922 35.067 22.034 34.9251C22.1759 34.7834 22.2553 34.5941 22.2553 34.3934V32.7982L22.7816 32.6495C23.0219 32.5816 23.2581 32.4995 23.4888 32.4039C23.7208 32.3078 23.9469 32.1977 24.1658 32.0748L24.6435 31.8065L25.7732 32.9362C25.9149 33.078 26.1057 33.1531 26.3056 33.153H26.3717C26.5476 33.1379 26.7119 33.0624 26.8381 32.9361L27.4772 32.2971C27.6191 32.1552 27.6969 31.9652 27.6969 31.7646C27.6969 31.564 27.6191 31.3741 27.4772 31.2321L26.3475 30.1024L26.6158 29.6247C26.7387 29.4059 26.8488 29.1799 26.9448 28.948C27.0404 28.7172 27.1226 28.4809 27.1905 28.2406L27.3392 27.7143H28.9344C29.1351 27.7143 29.3244 27.6348 29.4661 27.493C29.608 27.3512 29.6875 27.1619 29.6875 26.9611V26.0574C29.6875 25.8566 29.608 25.6673 29.4661 25.5255C29.3244 25.3837 29.1351 25.3042 28.9344 25.3042H27.3392L27.1905 24.7779C27.1226 24.5376 27.0404 24.3013 26.9448 24.0705C26.8488 23.8387 26.7387 23.6126 26.6158 23.3938L26.3475 22.9161L27.4772 21.7864C27.6191 21.6445 27.6969 21.4545 27.6969 21.2539C27.6969 21.0533 27.6192 20.8634 27.4772 20.7214L26.8381 20.0824C26.6962 19.9405 26.5062 19.8627 26.3056 19.8627C26.105 19.8627 25.915 19.9405 25.7731 20.0824L24.6435 21.2121L24.1657 20.9437C23.947 20.8208 23.7209 20.7108 23.489 20.6148C23.2582 20.5191 23.022 20.437 22.7816 20.3691L22.2553 20.2203V18.6252C22.2553 18.4245 22.1759 18.2352 22.034 18.0934C21.8922 17.9516 21.7029 17.8721 21.5022 17.8721H20.5984C20.3976 17.8721 20.2083 17.9515 20.0665 18.0934C19.9247 18.2352 19.8452 18.4245 19.8452 18.6252V20.2204L19.3189 20.3691C19.0786 20.4369 18.8425 20.5191 18.6118 20.6146C18.3798 20.7108 18.1537 20.8208 17.9348 20.9437L17.4572 21.212L16.3274 20.0824C16.1855 19.9404 15.9955 19.8626 15.7949 19.8626C15.5944 19.8626 15.4044 19.9404 15.2624 20.0823L14.6234 20.7214C14.4971 20.8477 14.4216 21.0119 14.4065 21.1879L14.4065 21.1879ZM21.0503 22.1803C22.2456 22.1803 23.3279 22.6649 24.1113 23.4483C24.8947 24.2317 25.3793 25.314 25.3793 26.5093C25.3793 27.7046 24.8947 28.7869 24.1113 29.5703C23.3279 30.3537 22.2456 30.8383 21.0503 30.8383C19.855 30.8383 18.7727 30.3537 17.9893 29.5703C17.2059 28.7869 16.7213 27.7046 16.7213 26.5093C16.7213 25.314 17.2059 24.2317 17.9893 23.4483C18.7727 22.6649 19.855 22.1803 21.0503 22.1803Z" fill="#FFFFFE"/>
</g>
<defs>
<clipPath id="clip0_149_1858">
<rect width="76" height="76" fill="white"/>
</clipPath>
</defs>
</svg>
