<svg width="228" height="56" viewBox="0 0 228 56" fill="none" xmlns="http://www.w3.org/2000/svg">
<g clip-path="url(#clip0_92_9424)">
<path d="M65.8 2.6L42.4 15L17.4 1.7L14.1 0V14.5L3.7 9L0.5 7.3V11V37.2V40L28.7 55L56.8 40.1L70.5 32.8V3.9V0.1L65.8 2.6ZM28.7 51.2L3.7 37.9V35.4V12.8L8.1 15.1L14.2 18.3V32.7L38.8 45.8L28.7 51.2ZM67.2 28.1V30.7L42.4 43.9L17.4 30.6V5.6L21.8 7.9L42.4 18.8L67.2 5.6V28.1Z" fill="#037394"/>
<path d="M99.357 3.40002V5.90002H93.157V21.6H90.457V3.40002H99.357Z" fill="#037394"/>
<path d="M111.057 20.3C110.057 21.4 108.657 21.9 106.857 21.9C105.057 21.9 103.657 21.4 102.657 20.3C101.657 19.2 101.157 17.7 101.157 15.8V9.19998C101.157 7.29998 101.657 5.79998 102.657 4.69998C103.657 3.59998 105.057 3.09998 106.857 3.09998C108.657 3.09998 110.057 3.59998 111.057 4.69998C112.057 5.79998 112.557 7.29998 112.557 9.19998V15.9C112.557 17.7 112.057 19.2 111.057 20.3ZM106.857 19.4C107.857 19.4 108.557 19.1 109.057 18.5C109.557 17.9 109.757 17 109.757 15.9V9.19998C109.757 8.09998 109.557 7.19998 109.057 6.59998C108.557 5.99998 107.857 5.69998 106.857 5.69998C104.857 5.69998 103.957 6.89998 103.957 9.19998V15.9C103.957 18.2 104.957 19.4 106.857 19.4Z" fill="#037394"/>
<path d="M120.657 3.40002C122.457 3.40002 123.857 3.90002 124.857 5.00002C125.857 6.00002 126.357 7.50002 126.357 9.30002C126.357 11.2 125.857 12.7 124.857 13.7C123.857 14.7 122.457 15.2 120.657 15.2H118.457V21.6H115.757V3.40002H120.657ZM120.657 12.7C122.657 12.7 123.657 11.6 123.657 9.30002C123.657 7.00002 122.657 5.90002 120.657 5.90002H118.457V12.7H120.657Z" fill="#037394"/>
<path d="M128.757 21.6V3.40002H131.357V11.4C131.357 13.2 131.257 15 131.057 16.7L131.157 16.8C131.757 15.2 132.257 14.1 132.457 13.6L136.957 3.50002H139.657V21.7H137.057V13.8C137.057 12 137.157 10.3 137.257 8.50002L137.157 8.40002C136.657 9.80002 136.157 11 135.857 11.8L131.357 21.8L128.757 21.6Z" fill="#037394"/>
<path d="M150.557 12.2C152.657 12.8 153.757 14.3 153.757 16.6C153.757 18.3 153.257 19.6 152.157 20.5C151.057 21.5 149.757 22 148.057 22C146.357 22 144.957 21.5 143.857 20.4C142.857 19.3 142.257 18 142.157 16.4H144.857C144.957 17.3 145.157 18 145.757 18.6C146.357 19.2 147.057 19.5 147.957 19.5C148.857 19.5 149.557 19.2 150.157 18.7C150.757 18.2 151.057 17.4 151.057 16.5C151.057 15.5 150.757 14.8 150.157 14.3C149.557 13.8 148.757 13.5 147.757 13.5H146.357V11.1H147.457C149.557 11.1 150.557 10.1 150.557 8.2C150.557 7.4 150.357 6.7 149.857 6.2C149.457 5.7 148.757 5.5 147.957 5.5C146.157 5.5 145.257 6.5 145.157 8.6H142.457C142.557 6.9 143.057 5.5 143.957 4.5C144.857 3.5 146.357 3 147.957 3C149.557 3 150.857 3.5 151.857 4.4C152.857 5.3 153.257 6.6 153.257 8.2C153.357 10.2 152.357 11.5 150.557 12.2Z" fill="#037394"/>
<path d="M165.857 20.3C164.857 21.4 163.457 21.9 161.657 21.9C159.857 21.9 158.457 21.4 157.457 20.3C156.457 19.2 155.957 17.7 155.957 15.8V9.19998C155.957 7.29998 156.457 5.79998 157.457 4.69998C158.457 3.59998 159.857 3.09998 161.657 3.09998C163.457 3.09998 164.857 3.59998 165.857 4.69998C166.857 5.79998 167.357 7.29998 167.357 9.19998V15.9C167.357 17.7 166.857 19.2 165.857 20.3ZM161.657 19.4C162.657 19.4 163.357 19.1 163.857 18.5C164.357 17.9 164.557 17 164.557 15.9V9.19998C164.557 8.09998 164.357 7.19998 163.857 6.59998C163.357 5.99998 162.657 5.69998 161.657 5.69998C159.657 5.69998 158.757 6.89998 158.757 9.19998V15.9C158.657 18.2 159.657 19.4 161.657 19.4Z" fill="#037394"/>
<path d="M178.457 3.40002H181.157V21.6H178.457V13.6H173.257V21.6H170.557V3.40002H173.257V11.1H178.457V3.40002Z" fill="#037394"/>
<path d="M193.957 3.40002V5.90002H190.057V21.6H187.357V5.90002H183.457V3.40002H193.957Z" fill="#037394"/>
<path d="M194.057 16V13.8H200.557V16H194.057Z" fill="#037394"/>
<path d="M211.557 12.2C212.357 12.5 212.957 13.1 213.457 13.8C213.957 14.5 214.157 15.4 214.157 16.4C214.157 18 213.657 19.3 212.657 20.2C211.657 21.1 210.357 21.6 208.757 21.6H203.457V3.40002H208.557C210.057 3.40002 211.257 3.80002 212.157 4.80002C213.057 5.70002 213.557 6.90002 213.557 8.40002C213.457 10.2 212.857 11.5 211.557 12.2ZM208.157 5.90002H206.057V11.1H208.157C209.757 11.1 210.657 10.2 210.657 8.40002C210.757 6.70002 209.857 5.90002 208.157 5.90002ZM208.457 19.1C210.457 19.1 211.457 18.2 211.457 16.4C211.457 15.5 211.157 14.8 210.657 14.3C210.057 13.8 209.357 13.6 208.357 13.6H206.157V19.2H208.457V19.1Z" fill="#037394"/>
<path d="M221.857 21.9C220.157 21.9 218.857 21.4 217.857 20.4C216.857 19.4 216.457 18 216.457 16.2V8.7C216.457 6.9 216.957 5.5 217.857 4.5C218.857 3.5 220.157 3 221.757 3C223.457 3 224.757 3.5 225.757 4.5C226.757 5.5 227.257 6.8 227.257 8.6H224.557C224.357 6.5 223.457 5.5 221.657 5.5C220.857 5.5 220.157 5.8 219.757 6.3C219.257 6.8 219.057 7.6 219.057 8.7V16.2C219.057 17.3 219.257 18.1 219.757 18.6C220.257 19.1 220.857 19.4 221.757 19.4C223.557 19.4 224.557 18.4 224.757 16.3H227.457C227.357 18.1 226.857 19.5 225.857 20.4C224.857 21.5 223.557 21.9 221.857 21.9Z" fill="#037394"/>
<path d="M94.257 41V39.8H90.457V32.6H91.557V38.8H93.557V32.6H94.657V38.8H95.257V41H94.257Z" fill="#037394"/>
<path d="M97.8569 39.8V32.6H98.8569V35.7C98.8569 36.4 98.8569 37.1 98.7569 37.8C98.9569 37.2 99.1569 36.7 99.2569 36.5L101.057 32.5H102.157V39.7H101.157V36.7C101.157 36 101.157 35.3 101.257 34.6C101.057 35.2 100.857 35.6 100.757 35.9L98.8569 39.8H97.8569Z" fill="#037394"/>
<path d="M107.457 40.4V39.6H107.257C106.457 39.6 105.857 39.4 105.457 38.9C104.957 38.4 104.757 37.8 104.757 37V35.4C104.757 34.6 104.957 33.9 105.457 33.5C105.957 33 106.557 32.8 107.257 32.8H107.457V32H108.557V32.8H108.757C109.557 32.8 110.157 33 110.557 33.5C111.057 34 111.257 34.6 111.257 35.4V37C111.257 37.8 111.057 38.5 110.557 38.9C110.057 39.4 109.457 39.6 108.757 39.6H108.557V40.4H107.457ZM107.257 38.6H107.457V33.8H107.257C106.357 33.8 105.857 34.3 105.857 35.5V37C105.857 37.5 105.957 38 106.257 38.2C106.457 38.5 106.857 38.6 107.257 38.6ZM108.557 38.6H108.757C109.757 38.6 110.157 38.1 110.157 37V35.4C110.157 34.3 109.657 33.7 108.757 33.7H108.557V38.6Z" fill="#037394"/>
<path d="M115.857 32.6C116.557 32.6 117.157 32.8 117.557 33.2C117.957 33.6 118.157 34.2 118.157 34.9C118.157 35.6 117.957 36.2 117.557 36.6C117.157 37 116.557 37.2 115.857 37.2H114.957V39.7H113.857V32.6H115.857ZM115.757 36.3C116.557 36.3 116.957 35.8 116.957 34.9C116.957 34 116.557 33.6 115.757 33.6H114.857V36.3H115.757Z" fill="#037394"/>
<path d="M124.457 39.3C124.057 39.7 123.457 39.9 122.757 39.9C122.057 39.9 121.457 39.7 121.057 39.3C120.657 38.9 120.457 38.3 120.457 37.5V34.9C120.457 34.2 120.657 33.6 121.057 33.1C121.457 32.7 122.057 32.5 122.757 32.5C123.457 32.5 124.057 32.7 124.457 33.1C124.857 33.5 125.057 34.1 125.057 34.9V37.5C125.057 38.3 124.857 38.9 124.457 39.3ZM122.757 38.9C123.157 38.9 123.457 38.8 123.657 38.5C123.857 38.2 123.957 37.9 123.957 37.5V34.9C123.957 34.4 123.857 34.1 123.657 33.9C123.457 33.7 123.157 33.5 122.757 33.5C121.957 33.5 121.557 34 121.557 34.9V37.5C121.657 38.4 121.957 38.9 122.757 38.9Z" fill="#037394"/>
<path d="M131.057 36.1C131.357 36.2 131.657 36.4 131.757 36.7C131.957 37 132.057 37.3 132.057 37.7C132.057 38.3 131.857 38.8 131.457 39.2C131.057 39.6 130.557 39.7 129.957 39.7H127.857V32.6H129.857C130.457 32.6 130.957 32.8 131.257 33.1C131.657 33.5 131.757 33.9 131.757 34.5C131.857 35.3 131.557 35.8 131.057 36.1ZM129.757 33.6H128.957V35.7H129.757C130.357 35.7 130.757 35.3 130.757 34.6C130.757 33.9 130.357 33.6 129.757 33.6ZM129.857 38.8C130.657 38.8 131.057 38.4 131.057 37.7C131.057 37.3 130.957 37.1 130.757 36.9C130.557 36.7 130.257 36.6 129.857 36.6H128.957V38.8H129.857Z" fill="#037394"/>
<path d="M138.457 39.3C138.057 39.7 137.457 39.9 136.757 39.9C136.057 39.9 135.457 39.7 135.057 39.3C134.657 38.9 134.457 38.3 134.457 37.5V34.9C134.457 34.2 134.657 33.6 135.057 33.1C135.457 32.7 136.057 32.5 136.757 32.5C137.457 32.5 138.057 32.7 138.457 33.1C138.857 33.5 139.057 34.1 139.057 34.9V37.5C139.057 38.3 138.857 38.9 138.457 39.3ZM136.857 38.9C137.257 38.9 137.557 38.8 137.757 38.5C137.957 38.2 138.057 37.9 138.057 37.5V34.9C138.057 34.4 137.957 34.1 137.757 33.9C137.557 33.7 137.257 33.5 136.857 33.5C136.057 33.5 135.657 34 135.657 34.9V37.5C135.657 38.4 136.057 38.9 136.857 38.9Z" fill="#037394"/>
<path d="M142.957 38.8H145.657V39.8H141.857V32.6H145.557V33.6H142.957V35.7H145.357V36.6H142.957V38.8Z" fill="#037394"/>
<path d="M154.157 35.4C154.857 35.4 155.357 35.6 155.757 36C156.257 36.4 156.457 36.9 156.457 37.6C156.457 38.3 156.257 38.9 155.857 39.2C155.457 39.6 154.957 39.7 154.257 39.7H152.257V32.6H156.057V33.6H153.257V35.5H154.157V35.4ZM154.157 38.8C154.557 38.8 154.857 38.7 155.057 38.5C155.257 38.3 155.357 38 155.357 37.6C155.357 37.2 155.257 36.9 155.057 36.7C154.857 36.5 154.557 36.4 154.157 36.4H153.257V38.8H154.157Z" fill="#037394"/>
<path d="M161.657 32.6H162.757L160.957 38.3C160.757 38.9 160.557 39.3 160.257 39.6C159.957 39.8 159.557 40 158.957 40H158.657V39H158.957C159.257 39 159.457 38.9 159.557 38.8C159.657 38.7 159.857 38.4 159.957 38L160.057 37.7L158.157 32.6H159.257L160.457 36.1L161.657 32.6Z" fill="#037394"/>
<path d="M168.757 38.8H169.457V41H168.457V39.8H164.957V41H163.957V38.8H164.357C164.857 38.3 165.157 37.4 165.157 36.1L165.257 32.6H168.757V38.8ZM167.757 38.8V33.6H166.257L166.157 36.4C166.157 37.4 165.957 38.3 165.557 38.8H167.757Z" fill="#037394"/>
<path d="M174.657 32.6H175.757L173.957 38.3C173.757 38.9 173.557 39.3 173.257 39.6C172.957 39.9 172.557 40 171.957 40H171.657V39H171.957C172.257 39 172.457 38.9 172.557 38.8C172.657 38.6 172.857 38.4 172.957 38L173.057 37.7L171.157 32.6H172.457L173.657 36.1L174.657 32.6Z" fill="#037394"/>
<path d="M185.057 38.8H185.757V41H184.757V39.8H178.157V32.6H179.157V38.8H181.057V32.6H182.157V38.8H184.057V32.6H185.057V38.8Z" fill="#037394"/>
<path d="M189.357 38.8H191.957V39.8H188.257V32.6H191.857V33.6H189.357V35.7H191.657V36.6H189.357V38.8Z" fill="#037394"/>
<path d="M195.757 38.8H198.457V39.8H194.757V32.6H198.357V33.6H195.757V35.7H198.157V36.6H195.757V38.8Z" fill="#037394"/>
<path d="M92.657 47.1H93.657V54.7H92.657V51.4H90.557V54.7H89.457V47.1H90.557V50.4H92.657V47.1Z" fill="#037394"/>
<path d="M99.8571 54.7L99.4571 53.2H97.5571L97.1571 54.7H96.0571L97.9571 47.1H99.0571L100.957 54.7H99.8571ZM97.7571 52.2H99.2571L98.7571 50.2C98.6571 49.7 98.5571 49.2 98.4571 48.6C98.3571 49.2 98.3571 49.7 98.2571 50.1L97.7571 52.2Z" fill="#037394"/>
<path d="M105.857 47.1H106.957V54.7H105.857V51.9C105.557 52 105.257 52.1 104.857 52.1C104.157 52.1 103.657 51.9 103.257 51.5C102.857 51.1 102.657 50.5 102.657 49.7V47.1H103.757V49.7C103.757 50.6 104.157 51 104.957 51C105.257 51 105.557 50.9 105.857 50.8V47.1Z" fill="#037394"/>
<path d="M110.057 54.7V47.1H111.057V50.4C111.057 51.2 111.057 51.9 110.957 52.6C111.157 51.9 111.357 51.5 111.457 51.3L113.257 47.1H114.357V54.7H113.357V51.4C113.357 50.7 113.357 49.9 113.457 49.2C113.257 49.8 113.057 50.3 112.957 50.6L111.157 54.7H110.057Z" fill="#037394"/>
<path d="M120.657 47.1H121.657V54.7H120.657V51.4H118.557V54.7H117.457V47.1H118.557V50.4H120.657V47.1Z" fill="#037394"/>
<path d="M127.857 54.7L127.457 53.2H125.457L125.157 54.7H124.057L125.957 47.1H127.057L128.957 54.7H127.857ZM125.757 52.2H127.257L126.757 50.2C126.657 49.7 126.557 49.2 126.457 48.6C126.357 49.3 126.257 49.8 126.157 50.2L125.757 52.2Z" fill="#037394"/>
<path d="M132.457 53.7H135.057V54.7H131.357V47.1H134.957V48.2H132.457V50.4H134.757V51.4H132.457V53.7Z" fill="#037394"/>
<path d="M141.357 47.1V48.2H139.857V54.7H138.757V48.2H137.257V47.1H141.357Z" fill="#037394"/>
<path d="M145.857 54.8C145.157 54.8 144.657 54.6 144.257 54.2C143.857 53.8 143.657 53.2 143.657 52.5V49.4C143.657 48.6 143.857 48.1 144.257 47.7C144.657 47.2 145.157 47 145.857 47C146.457 47 147.057 47.2 147.457 47.6C147.857 48 148.057 48.6 148.057 49.3H146.957C146.857 48.5 146.557 48 145.857 48C145.557 48 145.257 48.1 145.057 48.3C144.857 48.5 144.757 48.9 144.757 49.3V52.4C144.757 52.8 144.857 53.2 145.057 53.4C145.257 53.6 145.557 53.7 145.857 53.7C146.557 53.7 146.957 53.3 147.057 52.4H148.157C148.157 53.1 147.957 53.7 147.557 54.1C147.057 54.6 146.557 54.8 145.857 54.8Z" fill="#037394"/>
<path d="M150.157 54.7L151.757 51.8C151.357 51.7 150.957 51.4 150.757 51C150.557 50.6 150.457 50.1 150.457 49.6C150.457 48.8 150.657 48.2 151.057 47.8C151.457 47.4 151.957 47.2 152.657 47.2H154.457V54.8H153.457V52H152.757L151.257 54.7H150.157ZM152.557 50.9H153.457V48.2H152.657C151.857 48.2 151.557 48.7 151.557 49.6C151.557 50.1 151.657 50.4 151.857 50.6C151.957 50.8 152.257 50.9 152.557 50.9Z" fill="#037394"/>
<path d="M163.357 54.8C162.657 54.8 162.157 54.6 161.757 54.2C161.357 53.8 161.157 53.2 161.157 52.5V49.4C161.157 48.6 161.357 48.1 161.757 47.7C162.157 47.2 162.657 47 163.357 47C164.057 47 164.557 47.2 164.957 47.6C165.357 48 165.557 48.6 165.557 49.3H164.457C164.457 48.5 164.057 48 163.357 48C163.057 48 162.757 48.1 162.557 48.3C162.357 48.5 162.257 48.9 162.257 49.3V52.4C162.257 52.8 162.357 53.2 162.557 53.4C162.757 53.6 163.057 53.7 163.357 53.7C164.057 53.7 164.457 53.3 164.557 52.4H165.657C165.657 53.1 165.457 53.7 165.057 54.1C164.557 54.6 164.057 54.8 163.357 54.8Z" fill="#037394"/>
<path d="M169.257 53.7H171.957V54.7H168.157V47.1H171.857V48.2H169.257V50.4H171.657V51.4H169.257V53.7Z" fill="#037394"/>
<path d="M178.157 47.1V48.2H175.757V54.7H174.657V47.1H178.157Z" fill="#037394"/>
<path d="M184.357 54.2C183.957 54.6 183.357 54.9 182.657 54.9C181.957 54.9 181.357 54.7 180.957 54.2C180.657 53.7 180.457 53.1 180.457 52.3V49.5C180.457 48.7 180.657 48.1 181.057 47.6C181.457 47.2 182.057 47 182.757 47C183.457 47 184.057 47.2 184.457 47.7C184.857 48.1 185.057 48.8 185.057 49.6V52.4C184.957 53.1 184.757 53.7 184.357 54.2ZM182.757 53.8C183.157 53.8 183.457 53.7 183.657 53.4C183.857 53.1 183.957 52.8 183.957 52.3V49.5C183.957 49 183.857 48.7 183.657 48.4C183.457 48.1 183.157 48 182.757 48C181.957 48 181.557 48.5 181.557 49.5V52.3C181.557 53.3 181.957 53.8 182.757 53.8Z" fill="#037394"/>
<path d="M192.157 53.7H192.857V56H191.857V54.7H188.357V56H187.357V53.7H187.757C188.257 53.2 188.557 52.2 188.557 50.8L188.657 47.1H192.257L192.157 53.7ZM191.057 53.7V48.2H189.557L189.457 51.1C189.457 52.2 189.257 53.1 188.857 53.7H191.057Z" fill="#037394"/>
<path d="M198.457 47.1H199.557V54.7H198.457V51.4H196.357V54.7H195.257V47.1H196.357V50.4H198.457V47.1Z" fill="#037394"/>
<path d="M202.057 54.7L203.657 51.8C203.257 51.7 202.857 51.4 202.657 51C202.457 50.6 202.357 50.1 202.357 49.6C202.357 48.8 202.557 48.2 202.957 47.8C203.357 47.4 203.857 47.2 204.557 47.2H206.457V54.8H205.357V52H204.657L203.157 54.7H202.057ZM204.457 50.9H205.257V48.2H204.457C203.657 48.2 203.357 48.7 203.357 49.6C203.357 50.1 203.457 50.4 203.657 50.6C203.857 50.8 204.157 50.9 204.457 50.9Z" fill="#037394"/>
</g>
<defs>
<clipPath id="clip0_92_9424">
<rect width="228" height="56" fill="white"/>
</clipPath>
</defs>
</svg>
